<svg id="Layer_1" data-name="Layer 1" xmlns="http://www.w3.org/2000/svg" viewBox="0 0 400 300" width="406" height="306" class="illustration styles_illustrationTablet__1DWOa"><path d="M236.89,193.22s-26.45-32.4-39.37-50.56-17.27-8.31-27.68-33.43C163.5,93.93,151.16,79.17,142.46,70a10.27,10.27,0,0,0-16.34,1.89L103.86,110a38,38,0,0,1-9.57,10.93L81.34,131a19.81,19.81,0,0,0-7.18,11.3L62,159.2a73.06,73.06,0,0,0-10.23,20.29L45.62,198.7Z" fill="#68e1fd"></path><path d="M236.89,193.22s-26.45-32.4-39.37-50.56-17.27-8.31-27.68-33.43C163.5,93.93,151.16,79.17,142.46,70a10.27,10.27,0,0,0-16.34,1.89L103.86,110a38,38,0,0,1-9.57,10.93L81.34,131a19.81,19.81,0,0,0-7.18,11.3L62,159.2a73.06,73.06,0,0,0-10.23,20.29L45.62,198.7Z" fill="#fff" opacity="0.8"></path><path d="M180.09,196.42s24.36-29.85,36.27-46.58,15.9-7.65,25.49-30.8c5.84-14.09,17.22-27.69,25.23-36.17a9.46,9.46,0,0,1,15.05,1.74l20.51,35.16a35.12,35.12,0,0,0,8.81,10.07l11.93,9.26A18.26,18.26,0,0,1,330,149.51l11.18,15.57a67.59,67.59,0,0,1,9.42,18.69l5.68,17.69Z" fill="#68e1fd"></path><path d="M180.09,196.42s24.36-29.85,36.27-46.58,15.9-7.65,25.49-30.8c5.84-14.09,17.22-27.69,25.23-36.17a9.46,9.46,0,0,1,15.05,1.74l20.51,35.16a35.12,35.12,0,0,0,8.81,10.07l11.93,9.26A18.26,18.26,0,0,1,330,149.51l11.18,15.57a67.59,67.59,0,0,1,9.42,18.69l5.68,17.69Z" fill="#fff" opacity="0.58"></path><path d="M111,159.52s1,7.13,4.09,11.82a7.78,7.78,0,0,0,6.53,3.53h5.71a1.88,1.88,0,0,0,1.52-3c-2.44-3.25-5.47-8.58-3.49-13.23C128.4,151.35,109.19,152.64,111,159.52Z" fill="#c1c1c1"></path><path d="M167.77,151.13s5.38,15.26,9.36,18.77,5.05,5.66,2.07,5.74-7.29,1.19-10-.77-9.94-13.64-9.94-13.64Z" fill="#c1c1c1"></path><path d="M88.88,171a4.56,4.56,0,0,1,1.82-3.7c1.41-1.11,3.24-3.55,4-8.85,1.32-9.11,3.81-14.25,4.3-20.21s8.45-13.92,20.21-13.59,22.7,2.14,30,0,12.93,4.65,27.17,2.5,21.87,3.31,27.17,11.26c0,0,2.32,8.51-7,7.82s-23.19,2-26.67,5.93-14.08,17.73-12.09,21.54-.33,5-6,4.14-7.28-10.11-6.62-14.58,3.22-5.8,1.1-7-4,6.46-28.91,4.68a7.46,7.46,0,0,0-6.5,2.92c-2.54,3.39-6.73,8.43-10.31,10.13,0,0,2,4.48-2.59,4.06C93.84,177.67,89.24,178.72,88.88,171Z" fill="#e6e6e6"></path><path d="M201.23,138.79s3.15-1.41,4.06,0-.91,3.64-2.49,2.9S201.23,138.79,201.23,138.79Z" fill="#24285b"></path><path d="M186.32,129.59s-4.56-4.39-7.54-3.39,2,6.13,5,6.37S186.32,129.59,186.32,129.59Z" fill="#e6e6e6"></path><path d="M185,132.42s-3-4.12-4.9-3.1S180.05,133.27,185,132.42Z" fill="#c1c1c1"></path><path d="M72,188,69.13,175.8l11.13-5.38s11.48,4.67,30.15,3.59,29.07,2.87,48.46,1.79,47-2.15,47-2.15l7.54,9-4.67,13.58S128.72,215.65,72,188Z" fill="#68e1fd"></path><path d="M72,188,69.13,175.8l11.13-5.38s11.48,4.67,30.15,3.59,29.07,2.87,48.46,1.79,47-2.15,47-2.15l7.54,9-4.67,13.58S128.72,215.65,72,188Z" fill="#fff" opacity="0.89"></path><circle cx="202.87" cy="63.68" r="35.72" fill="#ffd200" opacity="0.17"></circle><circle cx="202.87" cy="63.68" r="23.38" fill="#ffd200"></circle><path d="M37.83,219.91c-9.82-11.23-4.41-27.55,10.68-32.2a38.4,38.4,0,0,1,24.93.53c26.76,9.69,27.66-5.43,53.91-2.72s19.17,14.21,50.32,6,31.16-3.94,61,0,42.73-14.26,54.86-6.37,34.76,1.83,48.34-2,34.13,14.74,18.42,35.74-45.79,30.69-118.1,31.5C176.73,251.16,81.43,269.77,37.83,219.91Z" fill="#68e1fd"></path></svg>