<?xml version="1.0" encoding="UTF-8" standalone="no"?><!-- Generator: Adobe Illustrator 18.0.0, SVG Export Plug-In . SVG Version: 6.00 Build 0)  --><svg xmlns="http://www.w3.org/2000/svg" xmlns:xlink="http://www.w3.org/1999/xlink" contentScriptType="text/ecmascript" zoomAndPan="magnify" contentStyleType="text/css" id="图层_1" mapName="天津市" mapType="省市地图" enable-background="new 0 0 800 600" version="1.1" xml:space="preserve" preserveAspectRatio="xMidYMid meet" viewBox="0 0 800 600" x="0px" y="0px">
	<path name="静海县" fill="#D3D3D3" id="path0" d="M 276.9 340.1 L 278.2 340.8 278.8 342.5 279.3 342.7 281 343.2 282.3 342.7 284 342.9 283.6 343.4 286.7 344.3 287.9 345.1 288.6 343.4 289.5 343.6 289.5 344.2 291.9 345.1 291.6 345.6 293.6 346.4 293.6 347.5 297.1 348.2 304.9 351.2 312.9 357.5 320.5 362 325 366.1 333.9 379.8 343.9 390.2 346.9 392 346.3 393.5 345.2 394.5 344.3 395.4 340.7 400.2 338.9 399.5 335 403.9 338.7 406.9 329.4 413.2 327.8 412.5 327.9 414.1 323.9 416.7 324.4 418.6 325.2 418 325.9 418.6 325.9 419.5 326.5 419.5 326.1 419.7 326.6 419.5 327.2 420.2 328.5 419.9 328.1 428.6 326.5 428.8 326.6 432.9 328.1 432.9 328.1 433.8 328.1 432.9 328.5 432.9 328.5 434.5 329.2 436.4 328.1 441.2 328.1 444.6 327.2 445.5 327 447.3 326.5 448.1 324.6 448.6 324.6 449.6 323.3 449.6 320.5 451.8 317.2 452 316.4 451.8 311.6 447.7 308.6 439.7 308.6 437.3 310.9 430.8 309.8 430.1 305.9 429.2 306 427.9 307.3 425.1 306.6 424.5 302 426 301.4 428.6 300.8 428.8 297.7 428 297.1 427.3 296.8 427.3 290.6 428.2 289 429.7 285.1 429.7 285.1 430.8 284 431 284.1 429.9 283.4 429.9 280.1 431.4 275.2 430.8 274.7 424.1 273.9 421.5 274.7 418.6 274.5 416.2 272.6 416.9 270.6 416.7 267.3 416.9 261.1 415.6 260.9 416.2 259.6 417.1 259.6 417.6 259.1 417.5 257 416.5 255 416.9 254.3 414.1 251.3 413.9 252.8 407.8 250.7 407.8 250.9 406.9 250 406.9 250.4 404.7 250.9 403.9 251.5 403.9 251.7 403.5 250.7 403.5 251.3 401.9 250.4 401.3 251.5 399.8 252.2 396.7 252.4 396.3 251.3 396.1 250.9 394.8 251.7 391.1 247.6 390.9 246.7 390.2 245.9 388.7 245.9 387.4 247.4 384.2 247.4 383.1 247.2 380.9 244.6 380.9 244.6 374.4 244.6 372.6 245.2 372.4 245.2 371.1 246.1 370.7 247.4 366.8 247.4 364.8 248.1 364.2 248.5 362.9 250.2 361 252 357.7 252.4 357.7 252.8 356.6 253.3 356.6 253.5 353.8 253 353.1 253.3 352.5 254.1 352 254.3 350.8 254.8 350.7 254.8 349.7 253.5 349.2 253.3 348.8 252.8 348.8 252.8 347.5 253.5 345.1 255.6 345.5 257 345.1 257.8 345.5 258.3 343.4 259.5 342.9 259.6 342.5 260.9 342.7 261.1 343.2 260.9 343.6 258.9 343.8 258.9 344.5 258.5 344.7 258.9 345.5 259.6 344.5 261.9 343.8 262.2 344.2 261.9 345.1 265.2 345.5 269.1 345.1 269.3 344.3 269.3 345.3 272.8 345.1 272.8 344.3 274.9 343.8 274.7 342.9 275.2 342.7 274.7 340.8 275.2 340.4 276.2 339.9 276.9 340.1" stroke-miterlimit="10" stroke="#FFFFFF"/>
	<path name="大港区" fill="#D3D3D3" id="path0" d="M 345.2 394.2 L 346.3 393.7 346.9 392.2 356.9 395.9 359.9 397.7 361.2 396.6 360.1 396.1 360.3 395.1 359.5 394.6 361.9 393.1 370.5 386.6 374.5 382.9 380.1 389.6 380.7 387.2 382 384.9 388.8 379.2 392.2 378.2 391.4 371.6 391.6 369.7 393.7 369 394 369.5 395.7 367.9 397 367.7 399.6 369.9 401.1 369.9 400.5 366.2 401.1 366.2 401.1 367.3 405.4 367.7 404.6 370.1 403.9 372.7 399.6 376.4 394.4 378.2 394 379 394 395.5 394.2 399.8 393.1 406.8 414.8 407.2 414.3 408.9 414.8 428.4 414.6 438.4 417.6 446.2 409.4 446.2 401.6 447.7 396.4 449.5 396.1 449 396.8 448 395.7 448 396.1 446.9 395.7 446.2 395.3 446.9 394.8 447.1 394 446.2 392.4 446.5 392.7 446 392.4 445.6 391.1 446 387.5 445.6 388.6 447.8 387 447.8 386.6 447.1 386.1 446.9 379.4 448.6 375.8 451.6 374.9 451.2 373.2 452.3 374.5 453 374.5 453.2 372.5 455.3 367.5 457.7 367.1 453.6 364.9 454.2 365.6 456.2 364.3 457.1 359 458.2 356.5 459.7 355.8 459.7 355.1 457.7 353.8 456.2 353.2 456.2 353.2 458.1 348.6 459.9 344.3 459.7 342.8 454.5 347.1 453.4 347.1 453 343 454 342.8 453 343.6 451.7 346.3 451.2 346.5 450.8 343.9 451.4 343.9 451.2 344.3 450.4 346.3 449.9 346 449 346.5 447.8 346 446.5 346.3 446.5 341.5 444.9 341 440 339.5 440.2 338.2 443.2 333.3 445.8 329.6 446 328 446 327.2 445.2 328.1 444.3 328.1 441.3 329.3 436.5 328.5 434.7 328.5 433 328.1 433 328.1 433.7 328.1 433 326.7 433 326.5 428.5 328.1 428.5 328.5 420 327.2 420 326.7 419.6 326.1 419.6 326.5 419.6 325.9 419.6 325.9 418.3 325.2 418 324.4 418.3 323.9 416.5 328 414.1 327.8 412.6 329.4 413.1 338.7 406.8 335 404 338.9 399.6 340.8 400.1 344.3 395.1 345.2 394.2" stroke-miterlimit="10" stroke="#FFFFFF"/>
	<path name="西青区" fill="#D3D3D3" id="path0" d="M 277 340.1 L 277 338.8 277.7 339 278.5 336.9 279.2 337.1 281.1 332.7 283.8 331.4 284.6 329.7 285.3 329.1 284.6 325.4 285.3 325.2 284.6 322.3 287.4 321.7 287.4 321.2 285.9 320.6 285.7 319.7 287.9 318.9 287.7 319.5 289 319.7 289.4 318.4 291.5 316.2 293.3 316 293.9 317.8 297.4 316.9 297.6 317.6 299.6 317.1 300.2 318.9 300.9 319.3 301.7 321.5 303.7 320.6 303.1 318.8 303.7 318.6 303.7 317.1 304.3 316.9 304.8 320.2 307.8 319.5 310.9 318.4 311.3 319.5 312.4 319.5 313 318 312.6 317.6 313 317.1 316.7 316 321.5 316.2 323.2 316.9 322.1 320.4 322.6 321.3 322.1 322.5 321.3 322.6 321.5 323.6 319.5 325.8 323.4 329.9 323.9 334.5 324.1 335.6 326.2 338.4 329.5 342.5 330.2 342.7 334.1 341.2 336.9 340.3 341.4 346.6 341.8 346.4 342.3 347.3 343.8 347.1 344.5 348.1 348.4 347.3 348.6 348.1 347.9 348.6 347.5 349.6 347.9 351.2 349.2 353.1 349.5 353.1 351.2 356.6 352.9 356.1 353.6 358.3 352.1 360.7 352 362.5 351.2 362.9 349.9 362 348.8 362.9 349.5 363.8 348.8 364.4 347.1 367.9 344 367.6 348.1 369.8 347.3 373.3 349.4 374.4 348.8 375.2 349.2 375.5 355.3 382.6 356.8 383 359.8 383 362.2 388.2 361.6 388.2 361.6 389.1 362.4 389.1 362.5 389.5 362.4 389.5 362.9 391.1 361.2 391.3 361.8 393 359.6 394.7 360.3 395.4 360.1 396 361.1 396.5 359.8 397.6 357 395.8 346.8 392.2 344 390.2 333.8 379.8 324.9 366.1 320.6 362 313 357.7 305 351.2 297.2 348.3 293.5 347.5 293.5 346.4 291.5 345.7 292 344.9 289.4 344 289.4 343.6 288.7 343.6 287.9 344.9 286.6 344.4 283.7 343.4 283.8 342.9 282.4 342.7 281.1 343.1 279.2 342.7 278.8 342.5 278.3 340.8 277 340.1" stroke-miterlimit="10" stroke="#FFFFFF"/>
	<path name="津南区" fill="#D3D3D3" id="path0" d="M 341.7 346.3 L 343.6 345 348.4 345 348 343.4 348.8 342.6 349.3 342.4 350.1 343.4 352.5 342.6 351.9 340.4 353.2 338.7 356.7 339.3 358.8 340.2 360.1 341.1 361.6 343 364 344.3 366 344.8 369.7 344.5 371 348.2 371.8 349.5 375.1 351.7 377.3 352.5 381.1 351.9 383.1 351.3 385.5 349.1 386.1 349.9 385.9 351.9 386.1 352.8 388.1 353.6 390.3 352.8 392.2 355.1 393.5 357.5 396.8 355.2 397.9 355.6 400.9 358.8 402.4 358.8 402.6 358.9 402.4 360.8 400.9 364 401.1 366.4 400.5 366.4 401.1 369.9 399.6 369.9 397 367.5 395.7 368 394 369.3 393.7 369 391.6 369.9 391.5 371.4 392.2 378.2 388.9 379.2 382 384.9 380.7 387 380.1 389.6 374.6 383.1 370.5 386.6 361.9 393.1 361.4 391.4 362.9 391.2 362.3 389.6 362.7 389.6 362.3 389 361.6 389 361.6 388.1 362.1 388.1 359.9 383.1 356.7 383.1 355.3 382.5 349.1 375.7 348.8 375.1 349.3 374.5 347.3 373.2 348 369.9 343.9 367.5 347.1 368 348.8 364.5 349.7 363.8 348.8 362.8 349.9 361.7 351.2 362.8 351.9 362.7 352.1 360.8 353.8 358.2 352.8 356.2 351.2 356.5 349.7 353.2 349.1 353.2 347.8 351.3 347.7 349.7 347.8 348.7 348.6 348 348.4 347.3 344.5 348 343.8 347.1 342.3 347.3 341.7 346.3" stroke-miterlimit="10" stroke="#FFFFFF"/>
	<path name="塘沽区" fill="#D3D3D3" id="path0" d="M 404.4 315.8 L 409.8 317.7 410.2 316.7 414.4 314.9 414.6 314.3 414.4 313.6 413.9 313.2 413.5 313.4 413.3 313 413.3 308.9 416.7 308 417.2 307.1 418.2 306.9 419.5 308.9 420 309.5 422.4 313 425 313 425 317.1 425.6 316.7 432.3 316.4 436.3 316.7 436 318.6 434.7 321.4 434.7 322.7 434.7 323.8 436.5 326.4 438 326.4 439.9 323.2 441.2 322.3 442.3 325.3 444 327.3 452.1 332.7 450.6 342.3 454.3 356.8 457.9 365 454.7 370.5 446 370.7 441.4 375.2 437.5 374.4 420.2 390.6 414.8 407.3 393.1 406.7 394.2 399.9 394 395.6 394 379.1 394.4 378.3 399.6 376.5 403.9 372.6 404.6 370.2 405.4 367.4 401.1 367.4 401.1 366.3 400.9 364.1 402.4 360.7 402.6 358.9 402.4 358.7 400.9 358.9 398.1 355.7 396.8 355.1 396.8 351.4 396.3 351.2 396.3 350.5 394.8 350.5 395.3 347.9 396.1 345.9 396.8 346 397.4 343.3 402.2 341.4 403.3 338.4 401.6 338.3 401.3 333.6 398.3 333.6 398.3 331.9 392.2 331.6 394 322.7 395 321.6 399.6 323.6 401.3 322.7 401.8 319.9 404.2 319.1 404.4 315.8" stroke-miterlimit="10" stroke="#FFFFFF"/>
	<path name="南开区" fill="#D3D3D3" id="path0" d="M 322.5 321.3 L 323.8 322.8 325.8 322.4 325.7 323.2 328.3 323.9 330.7 323.7 330.7 322.8 334.8 322.4 334.8 325.6 334.4 325 332.5 325 332 333 332.7 339 334 341.4 330.3 342.7 329.6 342.5 326.2 338.6 324.2 335.8 323.8 334.5 323.4 329.9 319.5 325.8 321.6 323.7 321.4 322.8 322.1 322.4 322.5 321.3" stroke-miterlimit="10" stroke="#FFFFFF"/>
	<path name="河西区" fill="#D3D3D3" id="path0" d="M 332 333 L 335.4 333.2 338.9 330.2 340.2 329.5 343.5 333.7 344.5 336.5 346.9 337.8 348.4 338.4 353.2 338.7 351.9 340.4 352.4 342.6 350.2 343.4 349.3 342.4 348.9 342.6 348.2 343.4 348.4 345 343.5 345 341.7 346.3 341.5 346.7 336.9 340.4 334.1 341.3 332.8 338.9 332 333" stroke-miterlimit="10" stroke="#FFFFFF"/>
	<path name="和平区" fill="#D3D3D3" id="path0" d="M 332 333 L 332.6 325 334.3 325 334.8 325.5 335.6 326.5 338.2 325.7 338.7 327.8 340.2 329.4 338.9 330.2 335.4 333.2 332 333" stroke-miterlimit="10" stroke="#FFFFFF"/>
	<path name="河东区" fill="#D3D3D3" id="path0" d="M 345 320.1 L 347.4 319.9 349.4 319.2 349.8 320.3 349 320.7 349.4 321.2 348.9 321.6 348.9 322.7 350.9 322.7 351.5 324.4 351.8 326.2 349.4 326.8 349 327.4 350.2 331.8 356.5 333.3 355.7 334 355.7 336.1 354.6 337.8 353.9 337.4 354.2 336.5 352.2 335.9 351.6 336.5 350.9 336.6 350.3 335.7 349.8 336.1 349.4 335.7 348.7 336.8 348.3 338.3 346.8 337.9 344.6 336.5 343.5 333.7 340.1 329.4 338.7 327.7 338.1 325.7 338.1 325.3 336.6 324.4 336.8 323.1 338.7 322.2 338.7 321.2 340 323.1 341.4 322 345 322 345.3 321.8 345 320.1" stroke-miterlimit="10" stroke="#FFFFFF"/>
	<path name="红桥区" fill="#D3D3D3" id="path0" d="M 323 316.9 L 323.9 313.9 325.4 312.3 326.2 313 328.4 312.5 328.9 313.4 330.1 313.9 331 314.7 332.1 314.7 332.3 317.7 331.5 318.6 334.3 322.1 334.9 322.7 330.8 322.7 330.8 323.6 328.2 324 325.6 323.2 326 322.5 323.9 322.7 322.6 321.4 322.1 320.4 323 316.9" stroke-miterlimit="10" stroke="#FFFFFF"/>
	<path name="河北区" fill="#D3D3D3" id="path0" d="M 330 314.1 L 330.2 313.7 332.6 312.9 332.2 312.8 332.6 312.6 333.5 312.8 334.6 312 335.4 313.5 338 312 338.7 312.8 338.9 312.6 340 314.1 342.2 312 345.2 315.4 343.7 316.8 345.2 317.2 345.8 317.6 346.9 317.4 347.1 317.8 347.2 320 345 320.2 345.2 321.8 345 322 341.5 322 340 323.1 338.7 321.3 338.7 322.2 336.9 323.1 336.7 324.3 338.2 325.2 338.2 325.7 335.6 326.5 334.8 325.6 334.8 322.8 334.3 322 331.5 318.5 332.2 317.6 332 314.6 330.9 314.6 330 314.1" stroke-miterlimit="10" stroke="#FFFFFF"/>
	<path name="东丽区" fill="#D3D3D3" id="path1" d="M 342.2 311.9 L 344.4 309.3 347 307.8 349.8 306.5 352.6 306 353.5 305.2 353.9 304.1 353.2 300.4 351.3 300.6 351.1 300 353 298.9 354.6 300 359.1 301.3 359.5 302.3 360.6 301.9 366.9 302.6 373.4 304.1 374.3 303.8 378.2 303.2 379.9 300.6 381.2 300.4 383.4 303.2 386.6 303.6 389.2 306 389.4 307.8 388.6 308.4 388.6 309 390.5 309.1 392.1 308.2 392.5 309.1 392 309.9 390.8 310.6 390.5 310.3 389.9 310.8 394.9 312.7 398.4 314.5 402.2 314.7 404.4 315.6 404.2 319.2 401.8 319.9 401.4 322.7 399.6 323.6 394.9 321.4 394 322.7 392.1 331.4 398.3 332.1 398.3 333.4 401.4 333.4 401.6 338.1 403.5 338.5 402.2 341.4 397.3 343.3 396.8 346.1 396 345.9 395.3 347.9 394.7 350.5 396.2 350.7 396.2 351.5 396.8 351.5 396.8 355.3 393.4 357.6 392.1 354.8 390.5 352.7 388.1 353.5 386 352.7 385.8 352 386 349.8 385.6 349.2 383 351.5 381 352 377.3 352.4 375.1 351.8 371.7 349.2 371 348.3 369.7 344.6 366 344.6 363.9 344.2 361.5 343.1 360 341.2 358.7 340.3 356.7 339 353.2 338.6 348.3 338.1 348.5 336.8 349.3 335.7 349.8 336 350.4 335.7 350.9 336.6 351.7 336.6 352.2 335.9 354.3 336.6 353.9 337.2 354.6 337.7 355.8 336 355.8 334 356.5 333.4 350.2 331.6 349.1 327.3 349.3 326.8 351.9 326 351.3 324.5 350.9 322.7 348.9 322.9 348.9 321.4 349.3 321.2 349.1 320.5 349.8 320.3 349.3 319.3 347.4 319.9 347 317.7 346.9 317.3 345.7 317.7 345.4 317.3 343.7 317.1 345.4 315.3 342.2 311.9" stroke-miterlimit="10" stroke="#FFFFFF"/>
	<path name="武清区" fill="#D3D3D3" id="path2" d="M 326.1 212.3 L 326.6 214.9 343 228.6 343 229.6 343.5 229.9 344.4 231 344.8 231 344.3 230.1 345.6 230.1 349.8 233.5 349.6 234.2 349.1 234.6 348.2 234.6 347.6 234.2 346.3 235.1 348.5 236.6 349.1 237.4 349.3 238.3 348.2 239 348.2 240.1 349.1 241.1 350.6 241.1 351.3 241.8 351.9 241.6 351.9 241.2 353.9 242.9 353.5 243.1 354.3 245.5 353.5 246.3 353.5 247.2 354.3 247.7 355.2 249.4 355.8 249.4 357.8 252.4 359.1 255.2 359.8 258 361.3 259.4 361.1 260.2 361.5 263.1 361.5 264.1 360.6 265.2 359.1 263.5 359.1 264.4 358 265.2 358.4 263.5 357.1 262.6 357.1 263.3 355.9 264.1 356.7 265.2 357.1 266.3 356.5 266.3 356.7 266.9 355.8 268.2 354.6 268.5 354.5 268.9 355 270.9 357.2 271.5 357.8 274.7 358.4 274.7 358.4 275.4 359.8 275.4 358.7 276 359.1 276.9 359.8 277.8 359.3 278.9 359.5 279.3 358.7 280.2 357.8 281.2 357.4 280.2 354.5 281.5 355.4 278.4 353.9 278.4 353.5 277.8 353.2 276.3 352.4 276.3 351.7 276 350.9 276.1 349.8 274.7 349.8 274.5 348.5 275.4 348.5 276.5 348.2 276.9 347.8 276.1 346.1 276 345.6 274.7 343 273.7 342.2 274.3 342.2 274.7 341.5 274.7 341.5 274.5 340.2 274.3 336.8 275.4 336.8 276.3 335.9 276.3 335.5 275.6 335.2 275.6 335.2 276.5 334.2 276.9 334.8 277.8 334.6 279.3 333.3 279.3 333.1 279.9 332.2 280.2 332.2 281 331.1 281 330.7 280.2 330.3 280.2 330 279.9 328.7 280 328.5 281 329.2 280.8 329.4 281.9 328.7 282.8 328.5 281.5 327.7 281.7 328.1 283.6 327.4 283.9 327.7 284.5 326.6 284.7 325.9 285.8 324.2 285.8 323.1 285.2 322.5 284.5 321.6 284.5 321.1 283.7 320.1 284.3 317.5 283.9 314 285.4 315.1 287.3 312.7 288.6 313.3 289.5 312 290.2 312.9 290.8 312.9 291 310.1 291.7 308.8 291.7 307.9 289.1 305.5 289.5 305.8 289.1 302.1 290.1 301.9 291 301.8 291.4 303.2 295.4 303.2 296.9 301.2 297.3 301 299.2 300.5 299.2 300.6 300.1 299.9 300.1 299.9 300.3 298.2 300.3 298.2 300.1 297.1 299.7 296.9 300.6 295.3 303 293 303.4 293.6 306.2 293.6 306.8 293 306.9 293.2 308.1 292.5 309 292.8 309.5 292.3 310.7 288.4 312.3 287.8 314 288.4 317.7 289.5 318.3 289 319.8 287.7 319.6 287.8 319 285.6 319.8 285.8 320.7 287.5 321.1 287.5 321.8 284.7 322 285.4 325.1 284.7 325.5 285.4 329.2 284.3 329.4 283.9 329 283.9 328.3 284.3 328.1 282.8 323.6 282.8 322.9 282.1 321.8 278.9 320.7 273.4 320.9 274.1 318.8 273.9 316.8 273.4 316 273.4 312.3 273 309 272.4 309 272.1 306.8 275 306.2 275.8 306.6 275.8 303.2 276 303.2 276.5 303.2 276.7 304.3 276.9 304.3 277.8 305.3 278 304.7 278.9 304.9 278.9 304.2 278.7 303.2 277.8 302.9 277.4 301 276.9 301.4 276 300.6 275.8 297.9 276 296.7 275 294.1 276.1 293.6 276 291 275.8 291 275.2 289.1 274.7 289.3 273.4 288 274.1 287.5 273.9 286.7 274.5 286.5 276.5 285.8 276.9 286.3 276.9 284.3 278.2 282.4 277.8 280 278.6 279.7 278.6 278.9 276.9 277.8 275.8 278 275.4 277.1 275.4 277.4 275.2 277.4 275.2 275.4 275.2 275 275.8 275 275.8 274.3 275 273.7 273 274.5 273 274.1 273.4 276.1 272.4 276.9 271.1 278.2 269.7 277.8 267.2 278.2 266.9 277.3 265.8 273.5 268.5 272.4 268.4 271.7 266.9 272.4 265.9 271.9 265.2 270.4 265.6 270 268.7 269.8 268.5 269.1 269.3 268.9 269.3 269.6 269.1 266.7 268.7 266.7 269.1 265.2 268.5 265.7 268.5 264.4 268.4 264.8 268 264.1 268 263.3 268.7 262.6 268.7 261.5 269.3 261.3 269.1 260.6 269.7 260.6 269.8 261.1 271.3 260.7 272.1 259.3 275.8 256.5 274.1 255.2 273 255 272.1 254.1 270.6 254.6 270.4 255 269.8 254.8 267.6 255.5 266.9 255 266.9 253.1 265 252 263.9 252.4 263.2 252.9 261.1 252.4 261.1 253.1 260.4 251.5 261.5 250.9 260.7 250 260.2 250 259.8 248.7 258.9 248.7 259.6 248.5 259.4 248.1 259.6 247.4 261.5 246.8 261.5 246.4 264.3 245.7 264.5 245 265.6 244.8 265.8 243.8 265.2 243.7 265 241.6 264.8 240.9 263.9 240.9 263.7 240.7 264.8 240.3 264.5 238.5 266.5 237.9 265.9 234.6 266.5 234.4 265.8 232.9 265 233.3 265.6 234.4 262.8 234.2 261.5 232.7 260.9 230.1 260.2 230.1 259.8 229.6 259.4 229.6 259.4 228.3 260.7 226.2 262.8 225.3 263.5 224.4 263.2 223.2 263.7 223.1 263.2 222.1 261.7 220.8 261.1 218.6 264.3 217.1 264.8 216.2 264.3 215.3 264.3 213.8 268.4 213 269.3 211.9 267.6 209.1 267.2 208.2 267.8 207.3 271.1 204.7 271.3 202.6 272.6 201.3 275.2 201.2 276.7 200 278.7 200.4 281.5 199.9 281.3 197.5 282.6 196.7 282.3 195.6 282.8 195.4 282.8 194.9 283.4 193.9 283.4 192.8 283.9 192.8 286.4 192.8 286.7 193.6 287.1 192.8 289.7 192.8 290.1 194.5 289.7 194.5 289.5 193.6 288.4 195.4 288.8 196.5 288.4 197.5 289.5 199.3 289 200.2 289.7 201.3 290.8 202.1 290.4 204.1 291.6 206.7 291.9 207.5 293.2 206.4 294 206.7 294.3 207.3 294.3 209.1 299.3 207.5 300.1 206.7 301.2 205.1 302.1 204.9 302.7 205.1 302.7 205.6 302.9 205.6 302.9 205.1 310.9 207.7 322.5 212.9 324.4 213 325 212.9 325.9 212.9 326.1 212.3" stroke-miterlimit="10" stroke="#FFFFFF"/>
	<path name="北辰区" fill="#D3D3D3" id="path3" d="M 358.8 280.4 L 360.3 282.2 361.1 281.7 361.6 282.6 361.2 284.1 362.2 285 362.5 284.8 370 291.9 370.3 291.1 371.1 291.3 372.4 290.9 373.3 290 373.9 290.6 374.4 293 373.1 296.7 372 296.9 372 298.7 372 299.3 372.7 299.3 373.3 300.4 374.8 302.1 374.8 302.5 374.4 303.9 373.3 303.9 367 302.6 360.5 302.1 359.6 302.3 359 301.3 354.7 299.9 352.9 298.9 351.2 299.9 351.4 300.6 353.3 300.4 354 303.9 353.4 305.2 352.7 306 349.9 306.4 347.1 307.8 344.5 309.5 342.3 311.9 339.9 314.1 339 312.7 338.6 312.7 337.9 311.9 335.4 313.6 334.5 311.9 333.6 312.7 332.5 312.7 332.3 312.7 332.5 313.2 330.2 313.6 330.1 314.1 328.9 313.4 328.4 312.7 326.2 312.8 325.4 312.3 323.9 313.8 323.2 316.9 321.5 316.2 316.7 316 313 317.1 312.6 317.5 313 318.2 312.4 319.3 311.3 319.7 310.9 318.2 307.8 319.7 304.8 320.1 304.3 317.1 303.7 317.1 303.7 318.8 303.1 318.8 303.7 320.8 301.7 321.6 300.9 319.2 300.2 319.2 299.6 317.1 297.6 317.5 297.4 317.1 293.9 317.9 293.3 316.2 291.5 316.2 289.4 318.2 288.5 317.5 287.9 313.8 288.5 312.3 292.2 310.6 292.8 309.7 292.6 309 293.3 308 293.1 306.9 293.5 306.9 293.5 306.4 293.1 303.4 295.4 303 296.8 300.8 297.2 299.9 298.1 299.9 298.1 300.4 300 300.4 300 299.9 300.7 299.9 300.4 298.9 300.9 298.9 301.1 297.1 303.1 296.9 303.1 295.2 301.7 291.3 302 291.1 302.2 290 305.7 289.1 305.6 289.7 307.8 289.3 308.9 291.5 310.2 291.9 313 290.9 313 290.6 311.9 290.2 313.2 289.5 312.6 288.5 315.2 287.2 313.9 285.6 317.4 284.1 320 284.1 321.2 283.7 321.5 284.6 322.6 284.5 323.2 285 324.1 285.9 326 285.8 326.7 284.6 327.6 284.6 327.5 283.9 328.2 283.5 327.6 281.7 328.4 281.7 328.8 282.8 329.5 282 329.3 280.7 328.4 280.9 328.8 280 330.1 279.8 330.2 280.4 330.8 280.4 331 281.1 332.3 280.9 332.3 280.2 333 280 333.4 279.3 334.5 279.3 334.9 278 334.3 276.7 335.1 276.5 335.1 275.5 335.6 275.5 335.8 276.5 336.9 276.3 336.9 275.5 340.3 274.2 341.4 274.4 341.4 274.8 342.3 274.6 342.3 274.2 343.1 273.7 345.5 274.8 346 275.7 347.9 276.1 348.1 276.7 348.6 276.5 348.6 275.5 349.9 274.4 349.9 274.8 350.8 276.1 351.6 276.1 352.5 276.5 353.3 276.3 353.4 277.6 354 278.5 355.5 278.5 354.6 281.3 357.5 280.4 357.7 281.1 358.8 280.4" stroke-miterlimit="10" stroke="#FFFFFF"/>
	<path name="宁河县" fill="#D3D3D3" id="path0" d="M 359.9 275.5 L 360.1 274.8 361 274.6 361.6 273.5 364 272.9 367 272.9 367.1 273.7 367.7 273.3 370.3 272.9 371 273.7 371.6 274.8 376 275.3 376 276.3 379.2 276.3 379.8 276.1 379.4 275.5 379.9 275.1 379.2 274.2 379.2 273.5 380.1 273.7 381.1 272.9 382.2 273.5 384.6 272.7 385 273.3 386.6 272.7 386.3 272 386.6 271.6 387.4 271.6 387 272.9 387.9 271.1 388.9 270.5 388.7 269 390.2 268.3 391.8 268.3 392.9 267.9 392.8 267.2 391.8 267.3 391.5 266 391.6 265.5 390.7 262.7 391.1 262.7 390.7 260.7 390.2 260.3 388.7 252.9 391.6 251.4 391.1 250.1 392.2 249.5 392.8 249.7 393.7 251.2 395.2 250.5 395 249.3 396.1 249.2 396.1 248.6 399.6 249.2 401.8 248.2 403.7 245.6 403.1 244 402.4 244 402.2 242.3 402.6 241.9 404.1 241.4 405.4 242.1 406.5 244 410.8 243 411.9 241 412.1 238 415.9 237.1 417.2 235.6 416.3 232.5 416.7 231.9 421 233.6 420.8 233.8 421.3 234.3 423.7 233.4 424.5 233 424.3 232.5 424.9 232.6 425 232.1 425.2 232.1 425.2 232.6 426.5 232.6 427.1 231.9 426.9 231 427.3 230.8 427.1 229.9 428.2 228.7 428.6 228.7 429.7 229.7 430.2 229.9 430.6 232.5 431.9 233.8 433 232.6 434.7 232.1 437.3 229.7 435.3 226.9 435.8 223.5 438.6 223.2 438.6 222.6 438.8 222.2 437.3 219.1 439.3 219.1 441.2 217.8 442.7 218.2 442.9 217.8 443.4 218.5 445.5 218.7 445.6 217.6 447.7 217 452.1 219.6 456.2 219.6 457.1 220.4 457.5 219.1 458.3 219.1 459.7 217.2 460.3 218.2 461.2 218.2 461 218.9 462.7 219.8 464.4 219.6 466.1 220 466.4 219.6 468.5 220.6 468.5 221.3 468.8 220.6 468.8 221.5 469.4 220.9 469.2 221.5 471.3 222.2 472.2 223.5 471.6 225 469.2 228 469.2 229.7 468.7 229.9 467.5 232.1 466.8 232.5 467.2 233.6 468.5 235.8 468.1 236.7 467.5 238 465.5 238.9 465.3 242.7 464.8 242.7 464.4 243.8 465.5 244.7 466.1 246.9 465.5 247.5 464 247.5 463.3 248.4 462 248.4 461.2 251.2 460.5 251.2 460.7 266.4 460.5 267.9 461.4 267.2 463.1 264.9 463.5 264.9 463.8 264 464.6 264 466.6 261.4 467.9 262.7 467.4 264 467.5 264.4 469.4 263.3 472.2 266.4 474 265.3 475.3 263.6 478.5 264 479.8 265.3 479.6 267 480.2 269.9 481.1 269.9 481.1 270.9 481.6 271.1 482.9 270.9 484.4 271.6 485.2 271.1 488 275.1 486.5 278.8 489.8 281.1 491.7 283.1 489.8 284 489.8 285.7 490.6 285.7 490.7 286.6 490.4 288.7 489.3 289.1 488.5 289.1 488 289.6 488.5 290.4 487.6 290.9 482.9 287.8 481.5 288.1 481.5 287.4 480.2 286.6 479.6 285.3 479.4 284.8 479.6 283.9 479.4 284 478.5 283.1 475.7 283.5 474.8 282.7 470.5 282.2 467.4 283.1 466.6 282.2 464.4 281.6 464.6 280.7 463.5 279.8 459.7 280.1 458.4 279.2 457.7 280 457.7 280.3 456.2 280.7 455.9 281.1 456.6 282 456.4 282.7 456.4 283.7 455.9 283.9 455.7 281.6 454.6 283.5 455.5 284.4 454.4 284.8 454.4 285.7 456.6 287.2 457.1 287.8 452.9 295.6 452.1 296.1 449.5 294.8 449.4 294.3 448.8 293.9 449.5 292.2 445.5 290.4 445.3 289.6 445.6 286.6 444.3 286.3 441.9 286.6 441.4 286.6 440.1 288.3 434.7 289.2 432.7 289.2 432.5 291.3 430.4 291.3 430.4 294.6 432.7 298.7 433.4 298.5 433.8 299.3 434.5 298.9 433.4 299.6 436.7 301.7 433 308 431.9 310.6 432.3 316.3 425.6 316.5 425 317.1 425 312.8 422.4 312.8 420 309.5 419.5 309.1 418.2 306.9 417.2 307.1 416.7 308 413.4 309.1 413.4 313.2 413.5 313.4 413.9 313.2 414.3 313.6 414.6 314.3 414.3 314.7 410.2 316.5 409.8 317.5 404.4 315.6 402.2 314.7 398.5 314.5 395 312.6 390 310.8 390.3 310.4 390.9 310.6 391.8 309.8 392.4 309.1 392.2 308.2 390.3 309.1 388.7 308.9 388.7 308.5 389.4 307.8 389 305.9 386.6 303.5 383.5 303 381.2 300.4 379.9 300.4 378.1 303 374.4 303.9 374.9 302.4 374.9 302 373.3 300.4 372.9 299.4 372 299.3 372 298.7 372 296.9 373.1 296.7 374.4 293 373.8 290.5 373.3 290 372.3 290.9 371 291.3 370.3 291.1 369.9 291.8 362.7 284.8 362.1 285 361.4 284 361.6 282.7 361 281.6 360.3 282.2 358.8 280.3 359.5 279.4 359.3 279 359.9 277.9 359 277 358.8 275.7 359.9 275.5" stroke-miterlimit="10" stroke="#FFFFFF"/>
	<path name="汉沽区" fill="#D3D3D3" id="path0" d="M 489.2 289.1 L 490.4 290.6 489.8 291.9 492.4 293.2 494.1 293.7 494.4 294.8 495.7 295 496.1 295.6 496.5 297.1 497.2 297.1 496.8 298.7 496.7 303 497.4 306 497.2 311.5 478.1 311.7 469.9 313.4 461 316.2 457.9 319.2 456.6 323.6 452.1 332.7 444 327.3 442.3 325.3 441.2 322.1 439.9 323.1 438 326.4 436.5 326.4 434.7 323.8 434.7 322.9 434.7 321.2 436 318.4 436.3 316.6 432.3 316.4 431.9 310.6 433 308 436.7 301.7 433.4 299.7 434.5 298.9 433.7 299.3 433.4 298.6 432.6 298.7 430.4 294.7 430.4 291.3 432.4 291.3 432.6 289.3 434.7 289.3 440.1 288.4 441.4 286.7 441.9 286.7 444.5 286.3 445.6 286.7 445.3 289.7 445.4 290.2 449.5 292.2 448.8 293.9 449.3 294.3 449.5 294.8 452.1 296.1 452.9 295.6 457.1 287.6 456.6 287.2 454.3 285.8 454.3 284.8 455.5 284.5 454.5 283.5 455.6 281.7 455.8 283.9 456.4 283.5 456.4 282.6 456.6 282 455.8 281.1 456.2 280.7 457.7 280.4 457.7 280 458.4 279.3 459.7 280 463.4 279.4 464.6 280.7 464.4 281.7 466.6 282.2 467.3 283.2 470.5 282.2 474.8 282.8 475.7 283.5 478.7 283.2 479.4 284.1 479.6 283.9 479.4 284.8 479.6 285.4 480.1 286.7 481.4 287.4 481.4 288.2 482.9 287.8 487.6 290.6 488.5 290.2 487.9 289.7 488.5 289.1 489.2 289.1" stroke-miterlimit="10" stroke="#FFFFFF"/>
	<path name="宝坻区" fill="#D3D3D3" id="path0" d="M 326.2 212.2 L 328 209.4 331 209.1 331 207.8 331.7 207.6 331.7 206.8 330.2 206.7 330.1 205.4 328.8 205.4 328.4 203.5 328.4 202 329.5 202 329.7 200.7 330.4 200.3 330.1 198.1 330.4 196.6 330.4 193.3 330.1 193.3 330.2 191.6 329.5 191.6 329.3 190.7 330.2 190.1 330.1 189.2 329.7 189 329.5 190.1 329.3 189.6 328.2 189 328.4 189 327.5 189 327.5 186.1 328.8 186.1 328.4 185.3 329.7 185.5 328.9 183.5 329.3 182.7 333 182.3 333.6 181.4 334.5 181.4 335.1 180.5 336.2 180.5 337.1 179.6 335.6 177.9 332.3 175.1 332.1 172.3 330.8 171.2 328.2 172 328 169.5 328.8 169.7 327.6 166.8 328.8 166.4 330.1 166.8 330.1 165.6 334.3 165.1 335.8 163 336.4 163.6 337.3 163 337.7 163.8 339.9 164 339.9 164.7 340.5 164.2 340.5 164.5 341 163.8 342.5 163.2 345.8 164 346 163.8 346.4 163.8 346.6 164.2 347.3 164.7 347.9 164.9 348.8 164.7 349.5 165.6 350.7 165.5 351.6 166.6 351.6 167.7 351.6 168.2 352 168.2 352 168.2 352.1 168.2 352.5 168.2 352.9 168.2 354 168.6 354.6 169.4 354.7 169.7 354.7 170.1 355.5 169.7 355.7 169.7 355.7 169.2 358.1 169.7 358.5 170.3 358.3 171 358.3 171.2 358.8 172.5 359.8 172.9 360.9 172 361.2 172 361.8 171.2 362.4 172.1 362.9 171.4 363.5 172.1 363.7 172.1 363.7 172.3 364.4 172.5 364.9 172.9 365.9 172.5 365.9 172.3 366.2 172.3 366.2 172 366.4 172.1 367 172.3 367 173.1 367 173.3 368.5 173.3 368.7 173.8 369.8 173.8 370.5 174.4 371.1 174 371.1 174.9 371.1 175.1 371.8 175.1 371.6 176.2 371.8 176.2 371.8 176.2 372.4 177 372.7 177.7 373.1 177.9 374 177.5 374.6 177.9 375.2 178.4 375.5 179.9 378.5 181.4 378.9 181.4 379.6 181.6 380 181.4 380.5 179.6 381.7 178.4 382.8 178.4 383 178.4 384.4 176.6 384.8 177 384.3 178.4 384.4 178.4 386.7 177.1 386.7 177 385.7 176.2 386.1 176.2 387.8 176.2 388.9 177 388.9 176.8 389.6 175.8 390.4 177.7 392.2 177 392.4 177.9 392.4 178.1 392.6 178.1 393.5 178.8 394.3 178.8 394.3 178.8 394.3 178.6 394.6 178.1 395.8 179.4 396.3 178.4 397.1 179 397.2 179 397.8 178.8 398 179.6 397.6 179.7 397.8 179.7 397.6 179.9 397.8 179.9 398 180.5 398.5 180.5 398.7 180.5 399.5 180.5 400.8 181.4 401.9 179.9 402.8 181.6 404.7 181.4 406 182.7 409.3 183.6 408.6 184.4 409.9 186.1 408.9 186.1 408.2 185.5 408 187 406.9 187 406 188.1 406.2 189 407.3 189 406.5 189.8 406.5 190.1 406.9 190 408.2 190 408.7 190.7 408.7 191.6 409.3 192 410.8 193.3 412.8 192.9 414.7 193.7 414.9 192.7 413.8 192 414.1 191.6 414.7 191.6 416.2 194.4 416.2 193.9 416.5 194.2 416.5 195.1 416.9 195.1 418.8 194.2 419.1 195.3 418.4 196.6 419.5 197.6 419.5 198.5 421 198.3 419.9 199.4 420.3 200 421.2 200.2 420.8 201.3 421.7 202.2 423 202.2 421.9 204.4 422.7 205.5 421.9 208.5 421.7 208.7 419.9 208.3 419.9 210.9 419.5 210.9 418.2 210.6 418.4 212.2 417.7 213 417.8 214.6 416.2 214.3 415.8 215.9 414.9 216.9 413.8 215.9 414.1 219.3 414.3 219.5 415.1 218.7 416.2 217 416.9 216.7 417.1 217 417.1 218.3 417.7 219.3 419.5 218.7 420.4 219.8 420.4 221.1 419.7 222.1 420.3 223.2 422.3 222.6 423.6 221.5 423.8 220.4 425.1 220.2 427.1 221.5 428.6 222.6 428.6 225.4 427.9 225.8 426.9 224.8 426 225 426 225.8 427.1 227.1 429.3 227.3 429.7 228.2 429.2 228.2 429.9 228.9 429.7 229.7 428.6 228.7 428 228.7 427.1 229.9 427.3 230.8 426.9 231 427.1 231.9 426.6 232.6 425.3 232.6 425.3 232.3 425.1 232.3 424.9 232.6 424.3 232.5 424.5 233.2 423.8 233.4 421.2 234.3 420.8 233.8 421 233.6 416.5 231.9 416.4 232.3 417.1 235.6 415.8 237.1 412.1 238 411.7 241 410.8 242.8 406.5 244 405.4 242.1 404.1 241.5 402.6 241.9 402.1 242.5 402.4 244 403.2 244 403.7 245.4 401.9 248 399.5 249.2 395.9 248.6 395.9 249.2 395 249.3 395.2 250.5 393.7 251.2 392.6 249.9 392.2 249.5 391.1 250.1 391.7 251.4 388.7 252.9 390.2 260.3 390.6 260.7 391.1 262.9 390.6 262.9 391.7 265.7 391.5 266 391.9 267.5 392.6 267.2 393 267.9 391.9 268.5 390.2 268.5 388.7 269 388.9 270.5 387.8 271.2 387 273.1 387.4 271.6 386.7 271.6 386.3 272.2 386.7 272.7 385 273.3 384.4 272.7 382.2 273.5 380.9 273.1 380.2 273.7 379.2 273.5 379.2 274.2 380 275.1 379.4 275.5 379.6 276.1 379.2 276.1 376.1 276.3 376.1 275.3 371.6 275 371.1 273.7 370.3 273.1 367.7 273.3 367.2 273.7 367 273.1 363.8 273.1 361.6 273.5 361.1 274.6 360.1 275 359.8 275.5 358.3 275.3 358.3 274.6 357.7 275 357.3 271.4 354.9 270.9 354.6 268.8 354.7 268.5 355.7 268.5 356.8 266.8 356.4 266.2 357 266.2 356.8 265.3 356 264 357 263.3 357 262.5 358.3 263.8 358.1 265.3 359 264.4 359 263.8 360.5 265.1 361.6 264 361.6 263.3 361.1 260.1 361.2 259.4 359.8 258.2 359 255.1 357.7 252.7 355.7 249.5 355.3 249.5 354.2 247.7 353.4 247.1 353.4 246.2 354.2 245.4 353.4 243 354 242.8 352 241.2 352 241.5 351.4 241.7 350.7 241 349.2 241 348.1 240.1 348.1 238.9 349.4 238.4 349.2 237.3 348.6 236.5 346.4 235.2 347.5 234.3 348.1 234.7 349.2 234.5 349.5 234.3 349.9 233.4 345.5 230 344.2 230.4 344.7 231 344.5 231.3 343.4 229.9 343.1 229.5 343.1 228.6 326.7 215 326.2 212.2" stroke-miterlimit="10" stroke="#FFFFFF"/>
	<path name="蓟县" fill="#D3D3D3" id="path0" d="M 437.7 113.8 L 437.3 116.2 437.5 116.6 437 117.7 437 120.3 438.3 121.8 439.6 122.3 439.7 121.6 439.6 120.7 440.1 120.3 441.4 120.3 441 119.7 442 119.4 443.5 119.4 443.6 119.4 443.6 119.9 444.2 119.9 444.4 121.2 444.9 120.7 445.7 121.2 446.2 122.2 446.8 121.8 447 122.7 445.5 124.4 445.9 125.3 445.9 126.1 444.9 129.8 443.8 130.5 443.8 132.4 440.7 131.1 439 132.7 436.2 130.9 434.9 131.4 434 131.4 433.2 129.6 432.5 129.6 429.9 127.9 426.8 128.3 426 129.6 425.6 129.6 423.6 130.7 417.5 131.4 416.9 131.8 416.2 132 414.1 131.6 412.3 130.7 412.1 130.5 412.6 130 412.6 128.8 410.8 127.7 410.2 126.2 409.3 126.4 408.6 125.5 406.2 126.2 406 125.5 405.2 125.9 404.9 126.4 403.9 126.8 403.2 126.2 403.4 125.9 402.8 125.5 401.1 125.3 400.4 124.9 399.8 126.2 398.7 125.3 398.4 125.5 398.5 127 399.5 128.8 400 128.8 400.4 130.1 398.7 131.6 398.4 133.7 398 133.9 398 135.1 397.4 135.7 396.7 135.7 395.9 137 394.5 137.2 393.9 138.5 393.9 140.2 396.3 141.1 395.8 143.1 394.5 145 395.6 154.6 399.5 160.6 399.5 163 400.6 165.4 402.4 168.6 402.8 170.6 402.6 171.9 401.9 171.9 401.9 174.1 400.4 176.5 400 179.7 399.1 179.9 398.7 180.2 398.5 180.2 397.8 180.1 397.8 179.9 398 179.7 398 179.3 398 178.9 397.8 178.9 397.8 178.8 397.1 179.1 396.5 178.2 396.3 178.4 396.3 178.2 395.8 179.1 394.6 178.2 394.3 178.8 394.3 178.8 393.5 178.9 392.6 178.2 392.4 178 392.4 177.1 392.2 177.1 390.4 177.5 389.6 175.6 389.6 176 389.4 175.6 388.9 176.5 387.8 176.2 387.6 176.2 386.1 176.2 385.7 176.2 385.7 176.3 385.7 176.5 386.7 177.3 384.4 178.4 384.3 178.2 384.8 177.1 385 176.5 384.4 176.5 382.8 178.4 382 178.2 381.7 178.4 380.4 179.7 380 181.2 380 181.5 378.9 181.2 375.5 180.1 375.2 178.4 375.2 178.2 374.6 178 374 177.5 372.7 177.5 372.4 177.1 371.8 176.2 371.8 175.2 371.8 175.1 371.1 175.1 371.3 174.1 371.1 174.1 370.5 174.5 369.6 173.6 368.7 173.8 368.5 173.2 367 173.2 367 172.5 367 172.3 366.4 171.9 366.4 171.9 366.2 171.9 366.2 172.3 365.9 172.5 364.9 172.6 364.4 172.6 363.7 171.9 362.9 171.5 362.4 171.9 361.8 171.3 361.2 171.9 360.9 171.7 359.8 172.8 358.8 172.5 358.3 171 358.5 170.4 358.1 169.9 355.7 168.9 355.7 169.7 354.7 169.9 354.4 169.5 354 168.6 352.9 168.2 352.5 168 352.5 168 352.1 168 352 168 351.6 167.6 352 166.7 351.6 166.7 350.7 165.4 349.5 165.4 348.8 164.5 347.9 165 347.3 164.5 346.6 164.1 346.4 163.5 346.4 163.4 346 163.5 345.8 163.5 346.4 162.6 345.8 162.1 346.8 160.8 347.1 160.2 346.6 159.5 345.8 159.3 344.7 157.4 343.8 157 343.1 158.3 341.9 158.3 341.2 159.3 339.9 158.3 338.2 158 337.7 157.4 334.9 156.9 333.2 155.9 332.8 156.5 332.5 155.2 332.1 154.6 331 155.7 329.7 155.6 329.7 154.8 331 153.9 330.4 153.3 330.1 154.3 329.5 154.3 328.2 153.2 327.6 152 328.4 150 326.3 148.5 326.3 147.6 328.2 146.7 328.2 145.7 325.6 145.4 325 143.7 324.1 143.1 326.3 142.2 326.2 140.2 326.7 139.4 327.5 140.2 328 139.4 326.9 137.4 329.7 135.1 329.5 133.5 331.5 132.9 332.1 130 333.8 129.8 334.9 128.8 334.5 126.8 334.9 126.8 335.6 125.1 335.4 123.3 334.5 119.7 333.8 118.1 333.6 116 333.6 114 333 112.1 334.3 111.6 334.9 110.1 335.6 109.5 336.6 110.1 337.7 109.5 338.2 109.7 340.3 109.5 337.9 105.6 338.6 104.9 338.6 104.2 338.2 104 338.2 102.7 338.4 102.3 340.5 102.9 340.5 101.9 341.9 100.1 345.3 97.5 346.8 98.6 348.1 99 350.1 98.4 350.8 97.3 351.4 97.3 352.7 96.4 354 96.5 354.9 95.6 356 92.8 356.8 92.5 358.1 92.7 359.2 91.7 362.9 91.7 362.9 91.2 364.4 89.7 365.3 87.5 364.2 85.2 364.4 84.7 365.9 84.3 366.6 83.4 371.3 83.4 374 81.9 374.4 81 373.9 80.8 372.4 81.5 372 81 371.1 81.3 369.6 80 369.8 79.5 369.6 78.5 370.5 77.6 371.1 77.6 371.1 76.9 369.2 76.3 369 74.3 370 73.5 371.8 73.5 371.8 72.4 371.3 72.1 372.4 70.4 372.7 70.4 374.4 70.8 375.3 70.6 375.9 69.6 375.5 68.3 376.1 66.9 377.9 67.4 377.9 67.8 379.4 67.4 380.4 65.9 382 65.9 386.7 68.5 387.4 70.4 388.3 69.8 391.7 71.3 392.4 72.1 394.3 72.1 397.1 70.8 398.7 71.1 400.4 70.8 401.3 72.1 401.1 73.2 401.3 73.5 403.2 73 404.7 73 404.9 74.1 404.5 75 403.9 75.4 403.4 77.1 404.1 77.1 405.2 78.2 404.9 79.5 405.6 80 405.2 80.6 405.6 81.5 405.4 82.3 406 83.4 408.6 85.6 409.9 87.5 412.1 87.8 412.6 88.2 413.6 88.2 413.8 90.2 415.6 92.5 415.8 91.9 417.7 93.6 419.9 94.3 419.7 97.3 419 97.5 419.7 97.7 419.7 98.6 420.4 99 419.9 99 420.6 99.3 420.4 99.9 419.1 100.4 419.1 101.7 418.8 102.1 419.1 103.6 420.3 103.8 420.4 103.2 420.6 103.6 421 102.3 422.7 101.4 423.6 102.3 423.6 103.2 424.5 104 424.3 105.6 425.6 105.1 426.6 105.5 426.8 104.7 426.4 104.5 426.8 104.5 426.8 103.2 428 102.7 429.2 103.2 430.1 103 430.6 104.2 432.5 106 434.2 106 435.3 106.8 437 106.6 437.5 105.8 438.3 105.6 439 106.4 439.7 107.7 438.8 107.7 438.8 108.8 439.7 109.5 440.7 109.5 442.9 111 442.3 112.5 440.3 114.2 438.6 114.2 438.3 113.8 438.3 114 437.7 113.8" stroke-miterlimit="10" stroke="#FFFFFF"/>
</svg>