<?xml version="1.0" encoding="UTF-8" standalone="no"?><!-- Generator: Adobe Illustrator 18.0.0, SVG Export Plug-In . SVG Version: 6.00 Build 0)  --><svg xmlns="http://www.w3.org/2000/svg" xmlns:xlink="http://www.w3.org/1999/xlink" contentScriptType="text/ecmascript" zoomAndPan="magnify" contentStyleType="text/css" id="图层_1" mapName="天津市" mapType="省市地图" enable-background="new 0 0 800 600" version="1.1" xml:space="preserve" preserveAspectRatio="xMidYMid meet" viewBox="0 0 800 600" x="0px" y="0px">
	<path name="恩施" fill="#D3D3D3" id="path0" d="M 216.3 249.3 L 217.1 249.7 219.6 248.2 220.4 248.2 222 246.7 221.2 245.6 222.8 245.2 226.9 242.2 226.9 241.1 228.6 240.1 230.2 241.1 231.8 241.1 232.6 242.2 233.4 242.2 235.9 243.6 236.7 246.7 235 248.2 235.9 251.3 237.5 252.8 240.7 253.8 239.9 254.9 239.9 257.5 238.3 258.9 239.1 260 240.7 260 241.6 263 243.2 265 241.6 267.1 241.6 269.1 238.3 270.2 238.3 272.3 239.9 273.7 236.7 275.3 235.9 279.8 236.7 281.4 235 285.5 235.9 287 235.9 288 233.4 289.1 230.2 292.7 228.6 293.7 228.6 295.1 226.9 298.3 227.7 299.8 228.6 300.3 230.2 299.8 232.6 297.7 235.9 297.7 236.7 300.9 237.5 302.4 239.1 302.4 237.5 306.9 237.5 309 236.7 309.9 236.7 312 235.9 312.5 236.7 313.6 238.3 314.6 239.1 321.2 236.7 322.2 236.7 324.3 231.8 325.8 231 331.4 231.8 333 229.4 336.5 231 338.6 229.4 339.6 230.2 340.6 231 342.2 229.4 346.3 229.4 347.8 226.9 346.7 222.8 348.2 222.8 349.3 225.3 350.3 223.6 352.3 224.5 353.3 226.1 354.4 226.1 355.9 229.4 359 226.9 360.5 228.6 361.1 228.6 362.6 226.9 364.6 227.7 365.6 226.9 367.2 226.1 370.7 226.9 371.7 226.1 374.3 229.4 375.3 230.2 373.8 235 373.8 237.5 370.2 239.9 368.2 242.4 369.7 244 370.2 244.8 370.7 244.8 371.7 241.6 373.8 241.6 377.4 240.7 378.4 243.2 379.4 243.2 380.9 244.8 384 248.9 385.5 251.4 390.6 250.6 392.1 242.4 398.3 240.7 398.3 238.3 396.7 236.7 398.8 236.7 401.4 234.2 401.4 234.2 402.4 231 403.9 230.2 403.4 228.6 400.8 226.1 401.4 225.3 398.3 222 394.7 219.6 393.2 215.5 393.2 214.7 391.6 213.8 390.6 210.6 390.1 208.9 389.5 204.8 391.2 202.4 391.6 199.9 390.6 196.7 391.6 195.9 391.2 195.9 392.7 194.2 390.6 192.6 391.2 189.3 391.2 186.9 392.7 186 393.6 186.9 395.3 186 397.3 186 397.7 186 398.8 181.1 400.8 182 401.8 182 405.9 178.7 407.5 177.9 406.5 177.9 404.9 174.7 403.9 172.2 404.4 172.2 405.4 170.6 406.5 167.3 404.9 168.1 406.9 166.5 406.9 167.3 408.5 165.7 411 164.9 411.6 164 411 163.2 411.6 164 415.1 162.4 414.7 162.4 413.5 161.6 414.1 161.6 417.2 160 416.7 160 417.2 159.1 419.8 160 421.3 159.1 421.7 159.1 422.2 158.3 422.2 156.7 424.3 158.3 428.4 156.7 427.4 155 428.9 155 434.5 155.9 434.5 155.9 435.5 155 437 152.6 439.6 148.5 442.2 149.3 444.2 149.3 447.3 148.5 448.3 149.3 450.3 147.7 452.3 142 446.2 141.1 446.2 139.5 447.3 138.7 445.2 137.1 442.7 139.5 438.6 137.9 436.6 137.1 435 137.9 430.4 137.1 428.4 134.6 426.9 133.8 425.8 133 425.4 133 426.3 132.2 429.5 128.9 429.9 128.1 431.9 123.2 432.5 124 429.5 124.8 427.8 124 426.9 124.8 424.3 123.2 422.2 119.9 421.7 119.1 419.2 119.9 417.7 120.7 416.7 120.7 412.6 123.2 409.5 121.5 409 122.3 408 121.5 406.9 120.7 408.5 119.9 407.5 120.7 405.4 119.9 403.4 118.3 403.9 117.4 402.4 115.8 402.8 115.8 403.9 115 403.4 113.4 403.9 113.4 403.4 113.4 402.8 114.2 400.8 111.7 400.3 113.4 402.4 112.5 402.8 111.7 401.8 111.7 403.4 110.2 401.4 107.7 399.8 108.5 398.8 107.7 398.3 105.2 398.8 106.1 396.7 105.2 395.7 106.1 394.2 105.2 393.2 105.2 388.6 103.6 387.1 105.2 386.5 103.6 383.5 102 383.5 101.2 382.5 99.5 382.5 97.9 384.5 97.9 385.5 96.3 387.1 93.8 391.6 93.8 393.6 94.6 393.6 94.6 394.2 93 395.3 93 396.7 92.2 397.3 91.3 395.7 89.7 395.3 88.9 394.2 87.3 394.7 88.1 391.2 86.4 391.2 85.6 389.5 86.4 387.5 84.8 386.5 84.8 385 84 385 84 387.1 82.4 386.5 82.4 385 84 383.5 84 383 85.6 383 87.3 380.9 88.1 380.5 88.9 382.5 91.3 382.5 92.2 381.4 93 382.5 93 380.9 93.8 379.9 93 375.8 95.4 370.2 93.8 368.7 94.6 365.2 93.8 364.6 92.2 366.1 92.2 365.2 93.8 363.1 94.6 363.5 96.3 359 97.1 355.3 96.3 355.3 96.3 353.9 97.9 346.7 95.4 345.2 93.8 342.6 93.8 341.2 92.2 340.6 88.9 336.5 87.3 337.1 84.8 335.1 84.8 333.4 86.4 333.4 86.4 331.9 86.4 331.4 85.6 329.3 86.4 327.8 85.6 325.8 86.4 324.3 87.3 324.8 88.9 323.8 89.7 324.8 91.3 323.2 93 323.2 97.1 326.3 97.9 323.8 100.3 323.8 100.3 322.2 102.8 320.2 103.6 318.7 102.8 316.6 104.4 315.6 106.1 315.6 106.9 319.7 107.7 320.2 107.7 321.2 109.3 322.2 109.3 323.2 110.2 324.3 113.4 322.2 115 324.3 117.4 323.2 122.3 316.1 125.6 313.6 126.4 312 128.9 311 129.7 311.5 132.2 309 133 310.5 137.9 310.5 137.9 312 136.2 313.6 136.2 314.6 137.1 316.1 136.2 316.1 136.2 317.7 138.7 319.7 138.7 320.7 140.3 320.7 142 319.2 142.8 319.7 147.7 316.1 147.7 315.6 146.1 315.6 148.5 315.1 148.5 314 150.1 313 151.8 311 153.4 312.5 153.4 316.1 154.2 315.6 155.9 318.1 155.9 319.2 154.2 321.8 155 322.8 155 324.3 155.9 324.8 160 318.1 161.6 314.6 163.2 312.5 164.9 312 166.5 310.5 168.9 308 170.6 308.5 171.4 309.9 172.2 309.9 173.8 305.4 177.9 303.3 178.7 301.3 178.7 299.2 180.3 298.8 182.8 296.2 182.8 295.1 183.6 294.2 186.9 291.1 195.9 287.6 199.1 287.6 200.8 289.1 204 286.5 204 287.6 204 289.1 205.7 293.1 206.5 294.2 207.3 295.7 209.8 295.1 214.7 286.5 215.5 281.4 216.3 278.8 215.5 277.8 213.8 278.3 213.8 274.3 212.2 273.7 213.8 271.7 213 270.2 213 268.7 215.5 266.1 217.1 265.6 217.9 263.6 218.7 262.6 217.1 261 217.1 257.5 216.3 256.9 216.3 254.4 215.5 253.4 216.3 249.3" stroke-miterlimit="10" stroke="#FFFFFF"/>
	<path name="宜昌" fill="#D3D3D3" id="path1" d="M 222.8 348.3 L 226.9 346.7 229.4 347.7 229.4 346.3 231 342.2 230.2 340.5 229.4 339.6 231 338.6 229.4 336.4 231.8 333 231 331.5 231.8 325.8 236.7 324.3 236.7 322.3 239.2 321.2 238.3 314.5 236.7 313.6 235.9 312.5 236.7 312.1 236.7 310 237.5 308.9 237.5 306.9 239.2 302.3 237.5 302.3 236.7 300.8 235.9 297.7 232.6 297.7 230.2 299.8 228.5 300.3 227.7 299.8 226.9 298.3 228.5 295.1 228.5 293.6 230.2 292.6 233.4 289.1 235.9 288.1 235.9 287 235.1 285.5 236.7 281.4 235.9 279.9 236.7 275.3 240 273.8 238.3 272.2 238.3 270.2 241.6 269.1 241.6 267.1 243.2 265 241.6 263 240.8 260 239.2 260 238.3 259 240 257.4 240 254.9 240.8 253.9 237.5 252.8 235.9 251.3 235.1 248.2 236.7 246.7 239.2 245.7 240.8 242.1 241.6 243.7 241.6 245.2 243.2 245.2 242.4 246.7 243.2 247.8 245.7 247.2 246.5 245.2 245.7 243.1 246.5 242.1 246.5 240 249 235.5 249 231.9 250.6 232.4 255.4 231.4 257.9 229.8 258.7 226.8 259.5 226.8 260.3 225.7 262.8 225.7 266.9 230.8 271 228.3 271.8 225.7 274.2 224.8 275.1 224.8 276.7 223.8 280.8 224.8 281.6 225.7 280.8 227.3 281.6 228.3 282.4 230.4 280.8 231.9 281.6 235.5 283.2 236.5 284.1 238.6 285.7 238.6 287.3 236.5 289 236.5 290.6 234.9 290.6 236 291.4 235.5 292.2 236.5 293.9 234.5 294.7 234.5 298 236 298.8 237 297.1 238.6 298 239 298 240 298.8 241.1 301.2 242.1 301.2 243.1 302 243.7 304.5 244.7 306.9 243.7 307.8 242.6 310.1 243.7 310.1 248.2 311 248.7 314.3 248.7 316.7 249.8 322.4 246.1 324.9 243.1 327.3 244.7 331.4 244.1 333 243.1 333 245.2 333.9 245.2 333 246.7 334.7 247.2 333 248.7 333 249.8 333.9 250.8 335.5 251.3 335.5 252.3 336.3 251.9 337.1 254.3 337.9 253.9 340.4 256 342 255.4 342 256.4 342.8 256.4 342.8 257.4 343.7 257.9 342.8 259 343.7 260.5 344.5 260.5 345.3 259 345.3 261 346.1 260.5 347.8 261 346.9 264.1 349.4 266.1 349.4 267.6 348.6 268.7 346.9 268.7 346.9 269.7 345.3 270.2 345.3 271.2 346.9 272.8 349.4 272.2 350.2 272.8 349.4 274.2 350.2 274.8 350.2 276.2 351.8 276.8 353.5 278.8 352.7 280.9 352.7 283.5 353.5 284 354.3 283.5 354.3 285.5 354.3 288.5 353.5 289.5 355.1 293.2 355.1 294.1 355.9 295.7 355.9 296.2 355.9 298.8 357.6 300.3 357.6 301.8 356.7 303.3 357.6 304.3 356.7 306.3 357.6 304.9 358.4 305.9 358.4 308 358.4 308.9 354.3 310 353.5 312.5 351.8 314.1 351.8 315.1 351 316.6 351.8 317.1 352.7 320.2 351 321.2 351 323.3 346.9 323.3 346.1 323.3 346.1 325.8 346.9 326.3 345.3 327.8 348.6 329.4 348.6 328.4 349.4 328.4 350.2 329.4 351 331.9 350.2 336.4 352.7 340.1 355.9 342.6 355.1 344.6 353.5 344.6 351 343.7 346.9 337.6 346.1 338.1 344.5 343.7 339.6 343.1 337.1 340.1 335.5 336 333.9 335.6 332.2 335.6 325.7 340.1 324 342.2 323.2 344.6 320.8 346.7 320.8 347.7 323.2 348.3 321.6 351.8 320.8 352.4 321.6 354.9 320.8 355.9 320.8 359 319.1 358.5 316.7 361 315 359.5 313.5 361 311 359.5 309.4 360 309.4 359 306.9 358.5 305.3 360.5 304.5 361 303.7 361.6 302 362.6 301.2 365.7 296.3 366.1 280.8 365.7 277.5 364.6 272.6 364.1 271.8 363.6 272.6 360 267.7 359.5 266.9 358.5 264.4 358.5 263.6 359 260.3 359 258.7 359.5 258.7 360.5 259.5 361 259.5 364.6 258.7 366.1 256.3 367.1 254.6 366.1 255.4 365.1 254.6 364.6 252.2 363.1 248.2 365.1 243.2 364.6 241.6 365.1 240 368.2 237.5 370.2 235.1 373.8 230.2 373.8 229.4 375.3 226.1 374.3 226.9 371.8 226.1 370.8 226.9 367.1 227.7 365.7 226.9 364.6 228.5 362.6 228.5 361 226.9 360.5 229.4 359 226.1 355.9 226.1 354.4 224.4 353.4 223.6 352.4 225.3 350.3 222.8 349.3 222.8 348.3" stroke-miterlimit="10" stroke="#FFFFFF"/>
	<path name="荆州" fill="#D3D3D3" id="path1" d="M 296.3 366.2 L 301.2 365.6 302 362.5 303.7 361.5 304.5 361 305.3 360.5 306.9 358.4 309.4 359 309.4 360 311 359.5 313.5 361 315.1 359.5 316.7 361 319.2 358.4 320.8 359 320.8 355.9 321.6 354.9 320.8 352.3 321.6 351.8 323.2 348.2 320.8 347.7 320.8 346.8 323.2 344.7 324 342.1 325.7 340.1 332.2 335.5 333.8 335.5 335.5 336.1 337.1 340.1 339.6 343.2 344.5 343.6 346.1 338.1 346.9 337.5 351 343.6 353.5 344.7 355.1 344.7 355.9 342.7 352.6 340.1 350.2 336.5 351 332 350.2 329.4 349.4 328.3 348.6 328.3 348.6 329.4 345.3 327.9 346.9 326.3 346.1 325.8 346.1 323.2 346.9 323.2 351 323.2 351 321.2 352.6 320.1 351.8 317.1 351 316.7 351.8 315 351.8 314.1 353.5 312.6 354.3 310 358.4 309 359.2 310 360 311.5 360.8 312 360 314.6 360.8 315 361.6 316.7 361.6 317.6 362.5 318.1 361.6 319.1 362.5 321.2 362.5 321.7 364.1 320.1 365.7 321.7 364.9 322.8 364.9 325.3 366.5 326.3 368.2 326.3 367.4 325.3 367.4 323.2 372.3 323.2 372.3 324.8 374.7 325.3 375.5 327.3 374.7 329.4 377.2 333.5 380.4 330.9 381.2 330.4 383.6 331.4 386.2 329.9 391.8 334 391.8 335 390.2 335 389.4 336.1 391 338.1 391 341.6 391.8 344.7 394.3 348.8 395.1 350.8 395.1 351.4 395.1 353.3 395.1 354.3 396.7 354.3 395.1 358.4 395.9 359.5 397.5 358.4 399.2 359.5 400.8 359 400.8 361 402.4 360.5 403.3 361.5 407.3 361.5 407.3 363.1 412.3 362.5 413.1 362.5 410.6 360.5 412.3 360 412.3 355.4 413.9 354.9 414.7 354.9 415.5 353.3 417.2 352.9 418 354.3 422.1 355.4 422.1 356.4 423.7 357.4 427 357.4 427.8 356.4 427.8 354.9 427.8 354.3 428.6 354.3 428.6 352.9 429.4 352.3 431.1 352.9 431.9 354.9 433.5 356.4 435.1 355.9 438.4 356.9 442.4 355.4 444.9 355.9 449.8 355.4 451.4 354.3 452.2 352.3 454.7 352.3 461.2 356.4 462 359.5 464.5 361.5 465.3 363.1 466.1 363.6 474.3 361.5 475.9 362.5 477.6 361.5 479.2 361 480 359 480.9 359 480.9 357.4 483.3 359 486.6 356.9 488.2 354.3 491.5 353.3 493.9 352.9 496.4 351.4 498 351.4 502 354.9 506.9 358.4 507.8 360.5 506.1 362.5 498.8 365.6 494.8 368.2 490.7 372.3 488.2 376.3 484.9 377.4 477.6 377.4 475.1 377.8 469.4 384 456.3 395.7 450.6 403.4 447.3 407.5 446.5 410 442.4 413.1 440.8 416.7 437.6 421.7 436 421.7 435.1 418.7 433.5 417.7 433.5 422.7 432.7 423.3 431.9 422.7 431.1 417.1 429.4 415.7 426.1 416.7 423.7 419.2 422.1 419.2 421.2 417.7 421.2 413.1 420.4 404.9 422.1 403.4 422.1 402.4 427 398.3 428.6 392.2 428.6 391.1 427.8 391.1 425.3 394.2 422.9 398.8 422.1 399.8 421.2 397.7 420.4 391.6 419.6 389.6 418 389.1 416.3 390.1 411.4 394.7 412.3 395.7 411.4 396.3 411.4 397.7 410.6 398.8 410.6 399.8 409 400.3 409 401.4 406.5 402.9 406.5 402.4 405.7 402.4 404.1 407 402.4 408.5 401.6 407.5 400.8 407.9 399.2 405.9 397.5 406.4 395.1 404.9 391.8 407 390.2 405.9 389.4 404.4 386.2 403.4 384.5 404.4 383.6 407.9 382 410.5 381.2 410.5 379.6 412.6 376.4 412.6 375.5 414.1 373.9 415.1 373.1 416.7 373.1 415.7 373.1 413.7 374.7 411 374.7 409 373.9 407.5 369.8 405.5 369 403.8 370.6 401.8 369.8 401.4 369 403.8 367.4 403.8 366.5 405.5 364.9 401.4 364.1 401.8 360.8 401.8 359.2 399.8 357.5 399.8 356.7 398.3 356.7 397.3 357.5 396.7 357.5 394.2 357.5 391.6 356.7 392.2 356.7 393.7 352.6 390.1 348.6 389.1 348.6 387.6 349.4 385.5 349.4 385 347.7 385.5 346.1 385 346.1 383.5 343.6 382.5 342 383 340.4 381.9 339.6 381.9 339.6 380.4 337.9 379.9 337.9 378.9 333.8 377.4 332.2 377.4 331.4 378.9 328.9 380.4 325.7 379.9 322.5 380.4 321.6 379.5 319.2 379.9 316.7 376.9 313.5 377.8 310.2 376.9 307.7 378.4 306.1 377.4 306.9 375.8 306.1 376.3 306.1 374.8 306.1 374.3 304.5 374.3 303.7 375.4 302 372.8 301.2 372.3 300.4 371.3 299.6 369.2 297.9 369.2 297.1 367.2 296.3 366.2" stroke-miterlimit="10" stroke="#FFFFFF"/>
	<path name="咸宁" fill="#D3D3D3" id="path1" d="M 469.4 383.9 L 475.1 377.9 477.6 377.3 484.9 377.3 488.2 376.3 490.7 372.3 494.7 368.2 498.8 365.6 506.1 362.6 507.8 360.5 506.9 358.5 502 354.9 498 351.3 496.3 351.3 493.9 352.9 491.5 353.4 491.5 350.3 493.9 345.2 496.3 343.1 498.8 342.7 502 345.2 503.7 349.3 504.5 349.8 503.7 351.3 508.6 350.9 511.9 356.9 511.9 359.5 515.1 362 515.9 366.1 516.8 367.1 516.8 368.7 517.6 370.2 519.2 370.2 523.3 369.1 527.4 367.1 534.7 369.7 536.4 371.2 537.2 370.8 540.5 373.2 542.1 374.3 540.5 375.8 542.1 374.9 542.9 376.3 543.7 376.3 545.4 375.3 546.2 375.8 546.2 377.3 549.5 378.4 550.3 377.9 550.3 378.9 554.3 379.9 553.6 384.5 554.3 385 555.1 385.5 556 389.1 554.3 392.7 556 394.2 557.6 393.7 558.4 395.2 558.4 394.2 563.3 394.7 564.1 398.3 564.9 398.3 566.6 400.3 566.6 401.8 567.4 403.3 567.4 405.4 568.2 407 568.2 408.5 570.6 409 570.6 411.1 572.3 411.5 571.5 413.1 571.5 414.1 573.1 414.6 572.3 416.6 569.8 416.6 569.8 414.6 569 414.6 569 415.6 568.2 415.6 568.2 413.6 567.4 414.6 566.6 417.2 564.9 418.7 565.7 419.2 566.6 422.3 569 420.3 569.8 420.3 568.2 419.7 569 418.2 570.6 417.7 570.6 419.7 571.5 419.7 569.8 421.8 569.8 422.3 569 422.3 568.2 425.4 566.6 426.4 565.7 425.4 560.8 427.9 559.2 427.4 557.6 428.4 557.6 429.3 556 428.9 556 426.9 555.1 426.4 551.9 426.9 551.1 426.4 548.6 427.9 547 427.9 545.4 429.3 544.6 430.4 538.8 433 538 432.5 535.6 433 533.1 431.4 529.8 431.9 529 433 526.6 433 524.1 428.9 520.8 430.4 520 431 520 433 519.2 434 520 436 519.2 438.6 520 441.2 517.6 441.2 514.3 443.2 508.6 443.2 505.3 443.7 505.3 446.3 503.7 447.3 503.7 448.8 500.4 451.4 498 453.9 498 453.4 497.1 458 493.9 460 491.5 459.6 491.5 457.5 492.3 457 489.9 457.5 488.2 456.5 489 454.5 487.4 453.4 484.1 454.5 482.5 457 481.7 457.5 480.9 455.5 480.9 452.9 480 453.9 478.4 455.5 477.6 455.5 477.6 450.4 476 447.8 478.4 444.2 477.6 441.6 476 441.2 475.1 442.2 473.5 439.6 471.9 439.6 471.9 438.1 472.7 437.1 473.5 433 476 431.4 476 428.4 476 427.4 477.6 426.4 480.9 426.4 481.7 424.4 481.7 422.8 482.5 421.3 481.7 419.2 478.4 417.7 477.6 415.6 474.3 415.6 473.5 414.1 476 413.1 476.8 413.6 476.8 412.1 479.2 411.5 480 410 480.9 409.5 481.7 408 480 405.9 479.2 405.9 479.2 403.9 476.8 403.3 476.8 402.9 476 399.2 473.5 400.9 471.9 400.9 469.4 400.3 467.8 400.3 467 398.8 466.1 398.3 467.8 393.7 467.8 391.7 468.6 390.2 468.6 387.6 469.4 386.1 469.4 383.9" stroke-miterlimit="10" stroke="#FFFFFF"/>
	<path name="黄石" fill="#D3D3D3" id="path1" d="M 540.5 373.3 L 541.3 369.2 540.5 368.1 541.3 368.1 542.1 366.7 541.3 364.1 543.7 365.6 542.9 366.7 546.2 365.1 547.8 366.1 548.6 368.1 550.3 368.7 551.9 367.7 551.9 366.1 552.7 365.6 553.5 366.1 555.2 365.1 554.4 362.6 555.2 361.5 556 362 555.2 358.9 552.7 356.5 554.4 353.9 550.3 349.8 550.3 346.7 551.1 345.2 552.7 344.7 552.7 342.1 555.2 339.5 555.2 340.6 556 342.1 556.8 342.7 559.3 341.1 562.5 341.1 563.3 343.2 565.8 344.2 565 345.7 565.8 347.7 569.8 349.8 571.5 350.7 573.9 349.8 574.7 350.3 577.2 346.7 578.8 346.7 580.4 345.7 581.3 345.7 581.3 348.3 583.7 350.3 585.3 350.7 589.4 349.8 591.9 351.3 597.6 358.9 599.2 363 599.2 366.7 605.8 375.3 605.8 378.4 607.4 379.4 609.1 382.9 613.1 384.9 612.3 385.5 610.7 387.5 609.9 394.2 606.6 397.8 605.8 399.8 604.2 399.8 601.7 402.3 600.1 402.9 598.4 403.9 597.6 403.9 596.8 405.4 595.2 404.9 595.2 403.4 596 402.9 595.2 401.9 587.8 401.9 584.5 400.3 583.7 400.8 583.7 402.3 585.3 402.9 586.2 403.4 585.3 403.9 585.3 408 587 407 588.6 407.5 587 409.5 586.2 413.1 587 415.6 584.5 415.6 580.4 414.1 580.4 413.6 582.9 411.5 582.1 411.1 578 412.1 574.7 410.1 574.7 410.5 573.9 410.1 573.1 411.5 572.3 411.5 570.6 411.1 570.6 409 568.3 408.5 568.3 407 567.4 405.4 567.4 403.4 566.6 401.9 566.6 400.3 565 398.2 564.2 398.2 563.3 394.7 558.4 394.2 558.4 395.2 557.6 393.7 556 394.2 554.4 392.7 556 389 555.2 385.5 554.4 384.9 553.5 384.5 554.4 380 550.3 378.8 550.3 377.8 549.4 378.4 546.2 377.4 546.2 375.9 545.4 375.3 543.7 376.3 542.9 376.3 542.1 374.8 540.5 375.9 542.1 374.3 540.5 373.3" stroke-miterlimit="10" stroke="#FFFFFF"/>
	<path name="潜江" fill="#D3D3D3" id="path1" d="M 391.8 334 L 391 332.4 391.8 329.9 395.1 328.4 395.9 325.2 394.3 324.8 395.1 322.7 395.9 321.7 397.6 323.8 398.4 322.7 398.4 321.2 396.7 318.6 397.6 318.2 398.4 317.7 399.2 315.6 400 314.5 399.2 312.5 400 312.5 400 313.1 400.8 311 403.3 310 405.7 311 402.5 312.5 403.3 315.1 404.1 319.2 405.7 317.1 410.6 316.2 411.5 318.2 413.1 322.7 417.2 324.2 418 322.7 417.2 318.6 419.6 316.6 422 318.2 422.8 321.2 422 321.7 422 323.8 422.8 324.8 422.8 325.8 426.1 325.8 426.9 326.8 425.3 328.4 426.1 329.9 424.5 332.4 423.7 335 425.3 338.1 424.5 339.6 425.3 341.6 426.9 341.6 427.7 343.2 426.9 344.6 427.7 345.7 426.9 346.3 426.9 348.7 429.4 352.4 428.6 352.8 428.6 354.5 427.7 354.5 427.7 354.9 427.7 356.5 426.9 357.5 423.7 357.5 422 356.5 422 355.4 418 354.5 417.2 352.8 415.6 353.4 414.7 354.9 413.9 354.9 412.3 355.4 412.3 360 410.6 360.5 413.1 362.5 412.3 362.5 407.4 363.1 407.4 361.5 403.3 361.5 402.5 360.5 400.8 361 400.8 359 399.2 359.5 397.6 358.5 395.9 359.5 395.1 358.5 396.7 354.5 395.1 354.5 395.1 353.4 395.1 351.3 395.1 350.8 394.3 348.7 391.8 344.6 391 341.6 391 338.1 389.4 336 390.2 335 391.8 335 391.8 334" stroke-miterlimit="10" stroke="#FFFFFF"/>
	<path name="仙桃" fill="#D3D3D3" id="path1" d="M 422.9 321.2 L 423.7 321.8 427.8 320.7 431 322.8 431.9 322.8 431.9 325.9 432.7 326.3 435.1 324.7 436 325.3 436 326.9 438.4 329.9 440 328.4 441.7 331 447.4 329.9 450.7 331 452.2 330.4 457.1 332.9 458.8 332.9 460.4 334.9 461.2 334.5 461.2 333.4 463.7 334.5 464.5 331.9 466.9 331 466.9 328.4 468.6 325.9 471 324.7 471.9 325.9 472.7 324.7 473.5 326.9 472.7 329.4 472.7 331.4 475.9 331 476.8 333.4 479.2 334 480 334.9 482.5 334.9 481.7 337 481.7 338.6 483.3 339.6 483.3 343.1 485.8 343.1 485.8 343.7 484.9 346.7 483.3 347.2 482.5 348.8 483.3 349.8 486.6 351.9 488.2 354.4 486.6 357 483.3 359 480.8 357.4 480.8 359 480 359 479.2 361.1 477.6 361.5 475.9 362.6 474.3 361.5 466.1 363.5 465.3 363.1 464.5 361.5 462 359.5 461.2 356.4 454.7 352.3 452.2 352.3 451.4 354.4 449.9 355.4 444.9 356 442.5 355.4 438.4 357 435.1 356 433.5 356.4 431.9 354.9 431 352.9 429.4 352.3 427 348.8 427 346.2 427.8 345.7 427 344.7 427.8 343.1 427 341.6 425.3 341.6 424.5 339.6 425.3 338 423.7 334.9 424.5 332.5 426.1 329.9 425.3 328.4 427 326.9 426.1 325.9 422.9 325.9 422.9 324.7 422.1 323.8 422.1 321.8 422.9 321.2" stroke-miterlimit="10" stroke="#FFFFFF"/>
	<path name="荆门" fill="#D3D3D3" id="path1" d="M 342 255.4 L 343.7 255.4 345.3 252.9 346.9 253.3 348.6 252.3 347.8 250.3 346.9 249.8 346.9 247.7 346.1 246.7 346.9 246.7 347.8 245.1 347.8 242.6 348.6 236.5 351.8 235 354.3 236.5 355.9 235.9 356.7 237 358.4 234.4 362.5 233.9 364.1 232.4 366.6 232.9 366.6 229.8 367.4 228.3 369 228.8 370.6 227.3 372.3 227.3 372.3 226.3 376.3 228.3 377.9 229.8 378.7 229.4 384.5 230.3 385.3 229.8 386.1 227.3 388.6 227.3 390.2 225.3 391.8 225.7 392.6 224.3 396.7 226.3 397.5 227.7 397.5 228.3 399.2 230.3 400.8 229.8 404.9 232.9 404.9 232.4 405.7 231.8 406.5 229.8 404.9 229.4 404.9 227.7 404.1 227.7 404.9 225.7 406.5 225.3 407.4 225.7 408.2 222.8 408.2 220.6 409 220.6 410.6 221.7 413.9 222.2 414.7 223.8 415.5 225.3 417.2 225.3 418 225.7 419.6 229.4 419.6 233.9 423.7 233.5 423.7 234.4 425.3 237 428.6 235.5 430.3 237 433.5 235.9 433.5 236.5 434.3 236.5 435.1 237.6 435.9 237.6 437.5 236.5 438.4 237 438.4 237.6 437.5 237.6 437.5 238 438.4 239 439.2 239 440.8 240.6 441.6 240 444.1 243.7 446.5 244.1 448.2 245.7 449 246.7 449.8 245.7 451.4 247.7 452.3 248.8 453.1 248.8 454.7 251.3 455.5 249.8 457.2 250.3 458 251.3 458.8 253.3 459.6 255.4 462.9 257 462.1 261.5 462.9 263 462.1 265.1 462.9 265.6 461.2 266.6 461.2 269.1 461.2 272.2 460.4 273.8 458.8 274.2 458 275.8 456.3 276.8 456.3 277.8 455.5 278.3 455.5 280.4 453.9 280.9 453.9 283.4 451.4 283.4 451.4 287.1 449.8 287.5 449.8 287.1 447.3 286 443.3 290.1 442.4 290.1 441.6 292.6 440 294.6 439.2 294.2 436.7 295.7 435.1 294.6 432.7 293.7 431.9 294.6 431.9 297.8 429.4 298.3 427 296.7 426.2 297.2 425.3 298.7 422.1 300.8 420.4 303.9 418.8 303.9 418 305.3 416.4 304.9 414.7 302.3 413.9 302.3 413.1 295.7 412.3 293.7 411.4 293.2 400.8 301.8 399.2 304.3 397.5 304.9 396.7 306.9 396.7 308.4 399.2 310.5 404.1 309 405.7 310 405.7 311 403.3 310 400.8 311 400 313.1 400 312.5 399.2 312.5 400 314.6 399.2 315.6 398.4 317.6 397.5 318.2 396.7 318.6 398.4 321.2 398.4 322.7 397.5 323.8 395.9 321.7 395.1 322.7 394.3 324.7 395.9 325.3 395.1 328.4 391.8 329.9 391 332.5 391.8 334 386.1 329.9 383.7 331.4 381.2 330.5 380.4 330.9 377.1 333.5 374.7 329.4 375.5 327.3 374.7 325.3 372.3 324.7 372.3 323.3 367.4 323.3 367.4 325.3 368.2 326.4 366.6 326.4 364.9 325.3 364.9 322.7 365.7 321.7 364.1 320.2 362.5 321.7 362.5 321.2 361.6 319.2 362.5 318.2 361.6 317.6 361.6 316.6 360.8 315.1 360 314.6 360.8 312 360 311.5 359.2 310 358.4 309 358.4 307.9 358.4 305.9 357.6 304.9 356.7 306.4 357.6 304.3 356.7 303.3 357.6 301.8 357.6 300.4 355.9 298.7 355.9 296.3 355.9 295.7 355.1 294.2 355.1 293.2 353.5 289.6 354.3 288.5 354.3 285.5 354.3 283.4 353.5 284 352.7 283.4 352.7 280.9 353.5 278.9 351.8 276.8 350.2 276.3 350.2 274.8 349.4 274.2 350.2 272.7 349.4 272.2 346.9 272.7 345.3 271.2 345.3 270.1 346.9 269.7 346.9 268.6 348.6 268.6 349.4 267.7 349.4 266 346.9 264.1 347.8 261 346.1 260.5 345.3 261 345.3 259 344.5 260.5 343.7 260.5 342.8 259 343.7 257.8 342.8 257.4 342.8 256.4 342 256.4 342 255.4" stroke-miterlimit="10" stroke="#FFFFFF"/>
	<path name="天门" fill="#D3D3D3" id="path1" d="M 451.4 287.1 L 451.4 287.5 451.4 288.5 453.1 289.1 453.9 291.1 456.3 292.6 459.6 297.2 458.8 299.8 458 301.8 459.6 302.8 458 305.3 459.6 305.3 459.6 306.9 458.8 307.4 458.8 309.4 461.3 311.5 460.4 312.5 459.6 314.1 460.4 315.1 458.8 316.6 458.8 318.2 459.6 321.2 459.6 324.3 460.4 325.3 461.3 326.8 460.4 331.4 461.3 333.4 461.3 334.4 460.4 335 458.8 332.9 457.2 332.9 452.3 330.5 450.6 330.9 447.4 329.9 441.6 330.9 440 328.4 438.4 329.9 435.9 326.8 435.9 325.3 435.1 324.7 432.6 326.4 431.8 325.8 431.8 322.7 431 322.7 427.8 320.7 423.6 321.7 422.9 321.2 422.1 318.2 419.6 316.6 417.2 318.6 418 322.7 417.2 324.3 413.1 322.7 411.5 318.2 410.6 316.1 405.7 317.2 404.1 319.2 403.3 315.1 402.5 312.5 405.7 311 405.7 310 404.1 309 399.2 310.5 396.7 308.4 396.7 306.9 397.6 304.9 399.2 304.3 400.8 301.8 411.5 293.2 412.3 293.7 413.1 295.7 413.9 302.3 414.7 302.3 416.4 304.9 418 305.3 418.8 303.9 420.4 303.9 422.1 300.8 425.4 298.7 426.1 297.2 426.9 296.7 429.4 298.2 431.8 297.8 431.8 294.6 432.6 293.7 435.1 294.6 436.7 295.7 439.2 294.1 440 294.6 441.6 292.6 442.4 290.1 443.3 290.1 447.4 286 449.8 287.1 449.8 287.5 451.4 287.1" stroke-miterlimit="10" stroke="#FFFFFF"/>
	<path name="孝感" fill="#D3D3D3" id="path1" d="M 449.8 245.7 L 450.6 243.6 451.5 244.2 451.5 243.6 451.5 238.5 453.1 237.5 454.7 239.6 457.2 238.1 459.6 238.1 462.1 237 465.3 240.5 467 241.1 467 240.1 467.8 240.5 468.6 239 469.4 239.6 470.3 238.1 471.9 238.5 472.7 240.5 474.3 241.1 478.4 237 480 233.4 484.9 235.5 485.7 237.5 486.5 236 488.2 237 489 236 490.6 235.5 492.3 239 493.1 238.5 493.1 237.5 494.7 237 495.5 238.5 497.2 239 497.2 239.6 496.3 240.1 495.5 241.1 496.3 241.1 498.8 240.1 498.8 240.5 499.6 237.5 501.2 238.5 502.9 236 504.5 236.4 506.2 234.4 505.3 231.4 507 230.9 506.2 229.9 507.8 229.3 507.8 228.3 509.4 227.3 508.6 226.8 507.8 226.3 507.8 225.3 509.4 220.7 508.6 219.2 510.2 215.1 511.1 214.1 508.6 213.5 507.8 211 509.4 209.5 508.6 207.4 510.2 205.4 508.6 204.3 509.4 202.2 511.1 198.8 511.9 199.2 514.3 197.7 517.6 199.8 518.4 198.8 518.4 200.2 522.5 207.4 526.6 206.9 529.9 208.4 530.7 208 531.5 208 532.3 208.9 534 209.5 534.8 208.4 535.6 208.9 535.6 208.4 537.1 208.9 538.8 208.4 538 206.9 538.8 205.9 539.7 205.9 540.4 208.4 541.2 208 542.1 205.9 544.5 205.9 544.5 206.9 543.7 211.5 544.5 211.5 544.5 212.5 543.7 213 543.7 216.1 542.1 217.6 541.2 220.7 542.1 224.3 541.2 226.3 539.7 225.8 539.7 225.3 539.7 225.8 539.7 226.8 538 230.3 538.8 234 538 234.4 538 234 537.1 234 536.4 237.5 536.4 238.5 536.4 239.6 534 238.5 534 241.6 533.1 242.2 532.3 244.2 533.1 245.2 534 247.2 533.1 248.3 528.2 248.3 527.4 247.2 525.8 247.7 523.3 245.7 521.7 243.6 520.1 245.2 518.4 245.7 518.4 247.2 516.8 248.7 516 248.7 515.1 251.3 516 252.3 514.3 252.8 515.1 256.4 516.8 257.5 518.4 257.9 519.2 260.4 517.6 264.1 514.3 267.1 515.1 270.6 514.3 272.3 513.5 272.7 512.7 274.7 513.5 275.8 513.5 276.8 514.3 278.4 513.5 280.4 512.7 281.9 512.7 284.5 512.7 288 513.5 289.1 513.5 292.7 514.3 294.2 513.5 299.2 513.5 299.8 511.9 298.3 509.4 298.8 507 297.2 502.9 296.6 502.9 297.8 500.4 296.6 498.8 297.8 496.3 297.8 495.5 299.2 493.9 298.8 493.9 299.8 494.7 299.8 493.9 301.8 494.7 302.8 493.1 302.4 493.1 303.3 493.9 304.4 494.7 303.8 494.7 305.4 498 306.5 495.5 309.9 496.3 311 495.5 312 496.3 313 496.3 315.6 495.5 316.6 493.1 317.1 492.3 318.7 492.3 321.2 491.4 321.8 490.6 320.7 489.8 320.7 488.2 323.8 484.9 327.9 484.1 329.9 480 331 478.4 333.4 479.2 334 476.7 333.4 476 331 472.7 331.4 472.7 329.3 473.5 326.9 472.7 324.8 471.9 325.8 471.1 324.8 468.6 325.8 467 328.4 467 331 464.5 331.9 463.7 334.5 461.3 333.4 460.4 331.4 461.3 326.9 460.4 325.3 459.6 324.3 459.6 321.2 458.8 318.1 458.8 316.6 460.4 315.1 459.6 314 460.4 312.5 461.3 311.5 458.8 309.5 458.8 307.4 459.6 306.9 459.6 305.4 458 305.4 459.6 302.8 458 301.8 458.8 299.8 459.6 297.2 456.4 292.7 453.9 291.1 453.1 289.1 451.5 288.6 451.5 287.6 451.5 287 451.5 283.5 453.9 283.5 453.9 280.9 455.5 280.4 455.5 278.4 456.4 277.8 456.4 276.8 458 275.8 458.8 274.3 460.4 273.7 461.3 272.3 461.3 269.1 461.3 266.5 462.9 265.6 462.1 265.1 462.9 263 462.1 261.6 462.9 256.9 459.6 255.4 458.8 253.4 458 251.3 457.2 250.3 455.5 249.7 454.7 251.3 453.1 248.7 452.3 248.7 451.5 247.7 449.8 245.7" stroke-miterlimit="10" stroke="#FFFFFF"/>
	<path name="武汉" fill="#D3D3D3" id="path1" d="M 520 245.1 L 521.7 243.7 523.3 245.7 525.7 247.7 527.4 247.2 528.2 248.2 533.1 248.2 533.1 249.2 530.6 253.9 531.5 255.9 533.1 257.8 533.9 257.8 534.7 259 536.4 259.5 536.4 259.9 534.7 260.5 534.7 261.5 537.2 262.5 537.2 263 539.6 263.6 540.5 268.1 539.6 269.1 540.5 271.7 538 272.7 538 274.2 538.8 275.8 540.5 276.3 542.1 278.9 546.2 280.9 547 284 548.6 284 548.6 283 550.3 283.4 551.9 282.4 553.5 283 552.7 280.9 553.5 279.3 556.8 277.8 558.4 278.9 557.6 278.9 557.6 280.4 560.1 277.3 560.9 277.8 560.9 279.9 562.5 281.4 561.7 281.9 563.3 281.9 565 282.4 565.7 280.4 565 278.3 565.7 277.3 566.5 276.3 569.8 275.8 569.8 277.3 570.6 276.8 572.3 278.3 573.9 276.8 573.1 274.8 573.9 274.8 573.9 275.2 573.9 277.3 574.7 277.8 573.9 279.3 574.7 279.9 574.7 282.4 577.2 285 581.3 287.5 581.3 288.5 578.8 289.6 578.8 290.6 578 291.6 576.4 290.1 575.5 290.1 574.7 291.1 575.5 292.6 574.7 294.6 573.9 294.1 571.4 295.7 572.3 296.7 572.3 297.8 570.6 296.3 569 297.2 566.5 296.3 566.5 296.7 565.7 299.2 563.3 301.3 559.3 303.3 560.9 305.9 560.9 307.4 560.9 308.4 562.5 307.9 565 310.5 564.2 311 564.2 311.5 564.2 312 559.3 313.1 558.4 313.1 553.5 316.1 549.4 317.2 547 319.2 547 321.7 548.6 326.4 547 327.9 544.5 327.9 544.5 329.4 545.4 332 545.4 343.2 542.9 344.7 542.9 346.2 541.3 348.7 541.3 351.8 539.6 352.4 538.8 356.9 539.6 360.6 540.5 361.5 541.3 364.1 542.1 366.7 541.3 368.1 540.5 368.1 541.3 369.2 540.5 373.3 537.2 370.7 536.4 371.2 534.7 369.7 527.4 367.1 523.3 369.2 519.2 370.2 517.6 370.2 516.7 368.7 516.7 367.1 515.9 366.1 515.1 362.1 511.8 359.5 511.8 356.9 508.6 350.8 503.7 351.4 504.6 349.8 503.7 349.3 502.1 345.2 498.8 342.6 496.4 343.2 493.9 345.2 491.5 350.3 491.5 353.4 488.2 354.4 486.6 351.8 483.3 349.8 482.5 348.7 483.3 347.3 484.9 346.7 485.8 343.6 485.8 343.2 483.3 343.2 483.3 339.5 481.7 338.6 481.7 337 482.5 335 480 335 479.2 334 478.4 333.5 480 330.9 484.1 329.9 484.9 327.9 488.2 323.8 489.8 320.7 490.7 320.7 491.5 321.7 492.3 321.2 492.3 318.6 493.1 317.2 495.6 316.6 496.4 315.6 496.4 313.1 495.6 312 496.4 311 495.6 310 498 306.4 494.7 305.3 494.7 303.9 493.9 304.3 493.1 303.3 493.1 302.3 494.7 302.8 493.9 301.8 494.7 299.8 493.9 299.8 493.9 298.7 495.6 299.2 496.4 297.8 498.8 297.8 500.5 296.7 502.9 297.8 502.9 296.7 506.9 297.2 509.4 298.7 511.8 298.2 513.5 299.8 513.5 299.2 514.3 294.1 513.5 292.6 513.5 289.1 512.7 288.1 512.7 284.5 512.7 281.9 513.5 280.4 514.3 278.3 513.5 276.8 513.5 275.8 512.7 274.8 513.5 272.7 514.3 272.2 515.1 270.7 514.3 267.1 517.6 264.1 519.2 260.5 518.4 257.8 516.7 257.4 515.1 256.4 514.3 252.9 515.9 252.3 515.1 251.3 515.9 248.8 516.7 248.8 518.4 247.2 518.4 245.7 520 245.1" stroke-miterlimit="10" stroke="#FFFFFF"/>
	<path name="鄂州" fill="#D3D3D3" id="path1" d="M 559.3 313 L 563.3 317.7 562.5 325.9 563.3 327.9 565 330.4 567.4 331.9 578 332.9 580.4 334.9 581.3 336.5 582.1 336.5 582.1 337 582.1 338 582.1 339.6 582.1 343.1 581.3 345.7 580.4 345.7 578.8 346.8 577.2 346.8 574.7 350.3 573.9 349.8 571.5 350.9 569.9 349.8 565.8 347.8 565 345.7 565.8 344.2 563.3 343.1 562.5 341.1 559.3 341.1 556.8 342.7 556 342.1 555.2 340.6 555.2 339.6 552.7 342.1 552.7 344.7 551.1 345.2 550.3 346.8 550.3 349.8 554.4 353.9 552.7 356.4 555.2 359 556 362.1 555.2 361.6 554.4 362.5 555.2 365.1 553.5 366.2 552.7 365.6 551.9 366.2 551.9 367.7 550.3 368.7 548.6 368.2 547.8 366.2 546.2 365.1 542.9 366.6 543.7 365.6 541.3 364.2 540.5 361.6 539.6 360.5 538.8 356.9 539.6 352.3 541.3 351.9 541.3 348.8 542.9 346.2 542.9 344.7 545.4 343.1 545.4 331.9 544.5 329.4 544.5 327.9 547 327.9 548.6 326.3 547 321.8 547 319.2 549.4 317.1 553.5 316.1 558.4 313 559.3 313" stroke-miterlimit="10" stroke="#FFFFFF"/>
	<path name="黄冈" fill="#D3D3D3" id="path1" d="M 533.1 248.2 L 533.9 247.2 533.1 245.2 532.3 244.2 533.1 242.1 533.9 241.6 533.9 238.6 536.4 239.6 536.4 238.6 536.4 237.5 537.2 233.9 538 233.9 538 234.5 538.8 233.9 538 230.4 539.6 226.8 539.6 225.7 539.6 225.3 539.6 225.7 541.3 226.3 542.1 224.2 542.9 225.7 544.6 225.3 545.4 223.7 547 222.7 548.6 223.3 551.1 226.3 552.7 226.3 552.7 227.8 552.7 228.3 554.4 228.3 554.4 228.8 556.8 228.3 558.4 228.8 558.4 230.4 559.3 231.4 559.3 231.9 560.9 232.4 563.4 234.5 564.2 232.9 565.7 232.4 566.6 233.5 569 232.4 570.6 233.5 570.6 232.4 573.1 230.9 573.9 232.9 574.7 233.5 575.5 231.4 575.5 230.4 577.2 227.8 578 229.4 582.1 229.8 582.1 228.8 583.7 227.8 582.9 225.3 584.5 223.3 584.5 221.6 587.8 221.2 588.6 223.3 590.3 224.8 591.1 225.7 592.7 225.3 591.1 231.4 591.1 233.9 591.1 236 591.1 237.5 594.3 238 594.3 239 594.3 240.6 595.2 241.1 596.8 240.1 597.6 241.6 598.4 241.6 600.1 239.6 601.7 240.1 603.3 239.6 604.2 240.6 604.2 241.1 603.3 242.6 603.3 244.2 603.3 244.7 605.8 245.7 606.6 244.7 608.2 245.2 608.2 247.7 609.1 248.2 609.9 247.2 609.9 247.7 609.1 250.8 610.7 252.3 613.2 252.3 614.8 253.4 615.6 255.8 614.8 258.9 616.4 262 618.1 263.6 619.7 263 621.3 260.5 622.1 259.9 623.7 257.9 627.8 257.9 628.6 260.5 629.4 261 630.2 262.5 631.1 263 632.7 267.1 634.3 265.6 637.6 265.6 639.2 263.6 640.9 263.6 641.7 265 641.7 266.1 641.7 268.1 645.8 271.2 645 273.2 649.9 274.3 650.7 275.8 651.5 276.3 654 275.8 654.8 280.9 649.9 282 647.4 283.9 645.8 286.1 645 286.1 644.1 287.6 641.7 288 640.1 289.6 638.4 292.6 639.2 294.7 639.2 295.7 639.2 297.2 640.1 297.7 638.4 299.8 636.8 300.3 635.2 299.2 633.5 299.8 631.9 305.9 636 310.5 636 312.1 635.2 313.1 636 314.5 636.8 313.6 638.4 314.1 640.1 316.2 640.9 319.7 643.3 321.8 641.7 324.8 641.7 327.8 643.3 328.9 644.1 330.4 645 330.4 645 331.4 643.3 331.4 640.9 335 643.3 339.1 642.5 341.2 644.1 342.2 645 341.2 647.4 342.2 648.2 343.2 648.2 345.7 650.7 346.3 654.8 350.8 654 352.4 654 352.8 654 353.9 654.8 358 656.4 358 655.6 362 656.4 367.2 655.6 367.6 654.8 373.8 658.9 379.4 659.7 381.4 658.9 383.5 659.7 384 659.7 385.5 659.7 386.6 656.4 388.6 653.1 392.1 645.8 396.2 641.7 395.2 637.6 393.7 626.2 384 618.1 385.5 613.2 385 609.1 382.9 607.4 379.4 605.8 378.4 605.8 375.3 599.3 366.6 599.3 363.1 597.6 359 591.9 351.3 589.4 349.8 585.4 350.8 583.7 350.4 581.3 348.3 581.3 345.7 582.1 343.2 582.1 339.6 582.1 338.1 582.1 337.1 582.1 336.5 581.3 336.5 580.4 335 578 333 567.4 331.9 565 330.4 563.4 327.8 562.5 325.8 563.4 317.7 559.3 313.1 564.2 312.1 564.2 311.5 564.2 311.1 565 310.5 562.5 308 560.9 308.5 560.9 307.4 560.9 305.9 559.3 303.3 563.4 301.3 565.7 299.2 566.6 296.7 566.6 296.2 569 297.2 570.6 296.2 572.3 297.7 572.3 296.7 571.5 295.7 573.9 294.1 574.7 294.7 575.5 292.6 574.7 291.1 575.5 290 576.4 290 578 291.7 578.8 290.6 578.8 289.6 581.3 288.5 581.3 287.6 577.2 285 574.7 282.4 574.7 279.8 573.9 279.4 574.7 277.9 573.9 277.3 573.9 275.3 573.9 274.8 573.1 274.8 573.9 276.9 572.3 278.3 570.6 276.9 569.8 277.3 569.8 275.8 566.6 276.3 565.7 277.3 565 278.3 565.7 280.4 565 282.4 563.4 282 561.7 282 562.5 281.4 560.9 279.8 560.9 277.9 560 277.3 557.6 280.4 557.6 278.9 558.4 278.9 556.8 277.9 553.5 279.4 552.7 280.9 553.5 282.9 551.9 282.4 550.3 283.5 548.6 282.9 548.6 283.9 547 283.9 546.2 280.9 542.1 278.9 540.5 276.3 538.8 275.8 538 274.3 538 272.8 540.5 271.7 539.6 269.1 540.5 268.1 539.6 263.6 537.2 263 537.2 262.5 534.7 261.6 534.7 260.5 536.4 259.9 536.4 259.5 534.7 258.9 533.9 257.9 533.1 257.9 531.5 255.8 530.7 253.8 533.1 249.3 533.1 248.2" stroke-miterlimit="10" stroke="#FFFFFF"/>
	<path name="神农架林区" fill="#D3D3D3" id="path1" d="M 202.4 229.9 L 204 228.3 205.7 228.8 206.5 226.8 208.1 226.8 209.8 223.2 213 221.2 213 219.7 217.1 221.2 217.9 223.2 219.6 223.8 220.4 225.3 221.2 223.2 221.2 221.7 220.4 220.1 218.8 219.2 218.8 218 221.2 217.1 221.2 215.1 219.6 214.6 221.2 209 223.7 207.9 223.7 206.4 229.3 206.4 230.9 205.9 230.9 202.8 232.6 202.3 233.4 201.3 235 200.8 237.5 202.3 238.3 201.8 239.1 198.7 240.8 197.8 242.4 199.2 244 198.2 246.5 198.2 247.3 197.8 252.2 198.7 253.8 197.2 255.5 198.2 256.3 198.7 259.6 199.2 260.4 200.2 260.4 199.8 262.8 203.9 266.1 205.3 268.5 209 268.5 210.5 270.2 214.6 271.8 216 274.3 215.1 276.7 217.1 276.7 217.6 275.1 218 275.1 220.1 273.5 222.1 273.5 222.7 274.3 224.7 271.8 225.8 271 228.3 266.9 230.9 262.8 225.8 260.4 225.8 259.6 226.8 258.7 226.8 257.9 229.9 255.5 231.4 250.6 232.4 248.9 231.9 248.9 235.4 246.5 240.1 246.5 242.1 245.7 243.2 246.5 245.2 245.7 247.3 243.2 247.7 242.4 246.7 243.2 245.2 241.6 245.2 241.6 243.6 240.8 242.1 239.1 245.7 236.7 246.7 235.8 243.6 233.4 242.1 232.6 242.1 231.8 241.1 230.1 241.1 228.5 240.1 226.9 241.1 226.9 242.1 222.8 245.2 221.2 245.7 222 246.7 220.4 248.3 219.6 248.3 217.1 249.8 216.3 249.3 213.8 243.2 214.7 241.6 212.2 240.1 212.2 239.1 207.3 239.1 206.5 237 206.5 236 204 235.4 203.2 233.4 199.1 232.9 202.4 229.9" stroke-miterlimit="10" stroke="#FFFFFF"/>
	<path name="襄樊" fill="#D3D3D3" id="path1" d="M 260.4 199.7 L 260.4 198.8 262 198.8 262.8 197.1 266.9 198.2 268.5 197.7 269.4 195.7 271.8 197.1 271.8 196.7 273.5 195.7 274.3 196.2 275.9 198.8 276.7 197.1 277.5 197.7 277.5 200.8 277.5 201.8 279.2 199.7 280 198.2 278.4 195.1 276.7 192.6 276.7 191.6 275.9 189.6 277.5 189.6 276.7 189.6 278.4 188 277.5 184.9 278.4 184.4 278.4 183.4 280 182.9 282.4 183.9 283.3 183.4 284.1 182.9 283.3 180.3 284.1 178.8 284.1 177.3 284.1 176.3 289 173.2 291.4 173.2 292.2 172.2 294.6 171.1 293.8 169.6 295.5 168.7 295.5 167 297.1 164 295.5 161.5 295.5 159.5 293.8 158.4 295.5 156.9 294.6 155.8 295.5 154.8 298.7 152.3 300.4 151.7 302 148.7 305.3 146.6 306.1 145.1 308.5 146.2 309.4 146.2 309.4 145.1 313.4 144.7 313.4 143.6 314.3 143.1 313.4 140.5 315.1 140.1 315.9 138.4 317.5 138.4 315.9 136 317.5 134.9 319.2 135.5 319.2 133.5 320.8 133.5 321.6 131.4 320.8 129.4 323.3 127.8 324.1 125.7 325.7 125.7 325.7 126.8 326.5 128.3 326.5 127.3 331.4 127.8 334.7 132.4 335.5 131.9 336.3 133.5 338 134.5 342.1 135.5 342.1 136.5 342.9 137.5 345.3 137.5 347.7 136 348.5 136.5 350.2 140.1 352.6 142.1 353.4 142.1 355.9 140.1 356.7 140.1 357.5 141.6 357.5 143.1 358.3 144.2 358.3 145.1 361.6 146.6 363.2 148.7 364.1 149.2 367.3 147.6 369 148.2 371.4 150.7 376.3 154.3 377.1 152.3 378.8 151.7 379.6 150.2 381.2 150.2 381.2 149.2 382 149.2 383.7 151.3 385.3 152.3 385.3 150.7 387.8 148.7 388.6 149.2 391 148.7 391.9 149.2 392.7 147.6 392.7 146.6 395.1 147.6 395.1 148.7 400 149.2 402.5 150.2 403.3 150.7 406.5 151.3 408.2 152.3 409 152.3 409.8 150.7 411.4 151.3 412.2 149.7 413.9 149.7 415.5 148.2 417.1 147.2 417.9 149.2 418.8 149.2 418.8 148.2 419.6 147.6 422.8 148.7 423.7 147.6 423.7 149.7 425.3 150.2 426.1 148.2 426.1 146.6 426.1 145.6 428.6 144.7 430.2 145.1 432.7 147.6 434.3 147.2 435.1 149.2 434.3 150.2 433.5 150.2 431 151.3 431 152.8 431.8 152.3 431.8 153.3 433.5 154.3 433.5 155.4 432.7 156.4 432.7 157.4 431 158.4 431 158.9 429.4 158.4 428.6 159.9 429.4 162 428.6 164 429.4 165 428.6 167 428.6 168.1 428.6 171.1 430.2 173.2 430.2 174.3 428.6 174.7 428.6 175.8 428.6 176.7 426.1 178.3 425.3 181.8 426.1 182.9 425.3 183.4 426.1 184.9 426.1 186.5 427.8 186.5 429.4 188 427.8 189 426.9 189.6 426.9 190 426.1 193.1 423.7 193.7 423.7 195.1 424.5 198.8 424.5 199.7 423.7 200.3 421.2 198.8 418.8 203.3 417.9 202.9 417.1 202.3 415.5 202.9 413.9 207 411.4 207.4 411.4 208.4 411.4 209 408.2 207.9 408.2 209 408.2 210.5 408.2 211.5 406.5 212.5 406.5 213 406.5 215.6 407.3 217.1 406.5 219.7 408.2 220.7 408.2 222.7 407.3 225.8 406.5 225.2 404.9 225.8 404.1 227.8 404.9 227.8 404.9 229.3 406.5 229.9 405.8 231.9 404.9 232.4 404.9 233 400.8 229.9 399.2 230.4 397.6 228.3 397.6 227.8 396.8 226.3 392.7 224.2 391.9 225.8 390.2 225.2 388.6 227.2 386.1 227.2 385.3 229.9 384.5 230.4 378.8 229.3 378 229.9 376.3 228.3 372.2 226.3 372.2 227.2 370.6 227.2 369 228.9 367.3 228.3 366.5 229.9 366.5 233 364.1 232.4 362.4 233.9 358.3 234.5 356.7 237.1 355.9 236 354.2 236.5 351.8 235 348.5 236.5 347.7 242.6 347.7 245.2 347 246.7 346.1 246.7 347 247.7 347 249.8 347.7 250.2 348.5 252.4 347 253.4 345.3 252.8 343.7 255.3 342.1 255.3 340.4 255.9 338 253.9 337.2 254.3 336.3 251.8 335.5 252.4 335.5 251.3 333.9 250.8 333.1 249.8 333.1 248.7 334.7 247.2 333.1 246.7 333.9 245.2 333.1 245.2 333.1 243.2 331.4 244.2 327.3 244.6 324.9 243.2 322.4 246.2 316.7 249.8 314.3 248.7 311 248.7 310.2 248.3 310.2 243.6 307.7 242.6 306.9 243.6 304.4 244.6 302 243.6 301.2 243.2 301.2 242.1 298.7 241.1 297.9 240.1 297.9 239.1 297.1 238.5 298.7 237.1 297.9 236 294.6 234.5 293.8 234.5 292.2 236.5 291.4 235.4 290.5 236 290.5 235 289 236.5 287.3 236.5 285.6 238.5 284.1 238.5 283.3 236.5 281.6 235.4 280.8 231.9 282.4 230.4 281.6 228.3 280.8 227.2 281.6 225.8 280.8 224.8 276.7 223.8 275.1 224.8 274.3 224.8 273.5 222.7 273.5 222.2 275.1 220.1 275.1 218.1 276.7 217.6 276.7 217.1 274.3 215.1 271.8 216.1 270.2 214.5 268.5 210.5 268.5 209 266.1 205.3 262.8 203.8 260.4 199.7 M 287.3 181.4 L 285.6 182.4 284.9 184.4 284.9 182.4 286.5 180.3 287.3 180.9 288.1 179.8 289 180.3 287.3 181.4" stroke-miterlimit="10" stroke="#FFFFFF"/>
	<path name="十堰" fill="#D3D3D3" id="path1" d="M 296.3 96.2 L 296.3 97.6 296.3 100.2 296.3 102.3 297.1 102.3 298.8 100.7 299.6 101.3 299.6 104.3 301.2 105.4 302.9 106.9 305.3 106.9 306.9 108.4 309.4 114.6 311 114.6 312.6 112.5 313.5 114 311.9 116.6 311 115.6 311 116.6 309.4 116.1 312.6 117.6 313.5 119.6 316.7 122.2 317.5 125.7 317.5 127.3 319.1 127.7 319.1 128.8 320.8 129.3 321.6 131.4 320.8 133.4 319.1 133.4 319.1 135.5 317.5 134.9 315.9 135.9 317.5 138.5 315.9 138.5 315 140 313.5 140.6 314.3 143.1 313.5 143.6 313.5 144.7 309.4 145.1 309.4 146.2 308.6 146.2 306.1 145.1 305.3 146.7 302 148.8 300.4 151.8 298.8 152.3 295.5 154.9 294.7 155.8 295.5 157 293.9 158.4 295.5 159.4 295.5 161.5 297.1 164 295.5 167.1 295.5 168.6 293.9 169.7 294.7 171.1 292.2 172.2 291.4 173.2 289 173.2 284.1 176.3 284.1 177.2 284.1 178.9 283.2 180.4 284.1 183 283.2 183.4 282.4 183.9 280 183 278.3 183.4 278.3 184.5 277.5 185 278.3 188 276.7 189.5 277.5 189.5 275.9 189.5 276.7 191.6 276.7 192.6 278.3 195.2 280 198.2 279.1 199.8 277.5 201.8 277.5 200.8 277.5 197.7 276.7 197.2 275.9 198.7 274.2 196.1 273.4 195.7 271.8 196.7 271.8 197.2 269.3 195.7 268.5 197.7 266.9 198.2 262.8 197.2 262 198.7 260.3 198.7 260.3 199.8 260.3 200.2 259.5 199.2 256.3 198.7 255.4 198.2 253.9 197.2 252.2 198.7 247.3 197.7 246.5 198.2 244.1 198.2 242.4 199.2 240.8 197.7 239.2 198.7 238.3 201.8 237.5 202.3 235.1 200.8 233.4 201.3 232.6 202.3 231 202.8 231 205.9 229.4 206.4 223.6 206.4 223.6 207.9 221.2 209 219.5 214.6 221.2 215.1 221.2 217.2 218.7 218.1 218.7 219.2 220.4 220.2 221.2 221.7 221.2 223.3 220.4 225.3 219.5 223.7 217.9 223.3 217.1 221.2 213 219.6 213 221.2 209.7 223.3 208.1 226.8 206.5 226.8 205.6 228.8 204 228.3 202.4 229.9 200.7 229.9 199.9 228.8 195.8 228.8 193.4 228.3 193.4 226.8 190.2 224.7 189.4 224.7 189.4 225.8 183.6 226.3 182.8 225.8 183.6 224.3 184.5 223.7 184.5 221.7 186.1 221.2 184.5 218.6 184.5 215.5 183.6 213.5 183.6 212.5 182 212 180.4 210.5 177.1 209.9 175.5 211 173 209.4 173.8 207.9 173 207.3 173 204.9 173.8 202.8 176.3 202.8 177.1 201.8 174.6 198.2 174.6 195.2 173 194.2 173.8 192.1 175.5 191.6 176.3 190.1 175.5 187.1 173 184.5 173 181.3 173.8 178.3 175.5 177.2 174.6 175.8 175.5 174.8 173 172.2 173 168.1 174.6 165 171.4 163.5 170.6 164 170.6 162.5 168.1 159.4 168.1 157.9 165.7 157.4 168.1 153.3 166.5 148.2 168.9 147.1 168.1 144.1 169.7 142.6 170.6 140 171.4 139.6 172.2 136.5 174.6 135.9 175.5 134.4 177.1 134.4 177.1 133.4 175.5 131.8 175.5 130.8 175.5 129.3 176.3 128.8 181.2 128.8 183.6 127.7 185.3 129.8 186.9 129.8 190.9 131.4 191.8 130.3 192.6 130.3 195.8 129.3 198.3 129.8 199.9 131.4 201.6 130.8 202.4 132.9 205.6 133.9 207.3 131.8 208.1 132.4 208.9 130.3 210.5 129.8 209.7 127.7 210.5 126.7 213 127.3 214.6 129.3 218.7 125.2 215.5 121.1 216.3 117.6 215.5 113.5 213.8 113 213 112 213.8 110.9 213.8 108.9 213 108.9 211.4 106.9 207.3 104.8 205.6 103.3 204 103.3 203.2 101.7 198.3 101.7 196.6 100.2 193.4 99.7 192.6 101.7 188.5 102.8 186.1 100.2 187.7 92.5 188.5 84.9 186.9 84.9 185.3 83.4 182.8 82.4 180.4 80.4 179.6 80.8 176.3 80.8 174.6 81.3 173 80.4 171.4 80.4 171.4 79.8 170.6 80.4 167.3 78.2 161.6 77.8 163.2 75.7 164.8 74.2 165.7 72.2 167.3 71.6 167.3 71.2 166.5 70.6 168.1 68.6 173 70.1 173.8 69.6 175.5 66.1 176.3 66.1 177.9 68.1 178.7 67.5 181.2 67.5 182.8 69.6 189.4 69.6 193.4 68.1 198.3 70.1 202.4 72.7 204.8 72.2 207.3 73.2 208.1 73.2 208.9 72.2 212.2 72.7 215.5 71.6 216.3 72.2 216.3 73.2 220.4 76.3 225.3 75.3 228.5 75.7 231 74.2 235.1 75.3 237.5 74.7 238.3 75.3 239.2 74.2 241.6 69.6 242.4 70.1 243.2 69.6 243.2 67.5 245.7 68.1 247.3 69.6 248.2 76.8 249.8 77.8 251.4 77.8 251.4 76.3 252.2 76.3 254.6 80.4 256.3 82.4 257.1 81.9 257.1 79.8 257.9 79.4 260.3 77.3 261.2 76.8 262 77.8 263.6 76.3 264.4 77.3 264.4 74.7 265.2 72.7 268.5 71.2 271.8 72.2 275.9 67.5 276.7 67.5 280 71.6 282.4 73.2 282.4 75.3 281.6 75.7 280.8 76.8 282.4 76.8 283.2 74.7 284.9 74.2 284.9 75.3 285.7 75.3 291.4 80.8 291.4 82.8 292.2 82.8 293 84.3 290.6 86 289 87.5 294.7 87.5 295.5 88 298 93.1 298 95.1 296.3 96.2 M 289 180.4 L 287.3 181.3 285.7 182.4 284.9 184.5 284.9 182.4 286.5 180.4 287.3 180.9 288.1 179.8 289 180.4" stroke-miterlimit="10" stroke="#FFFFFF"/>
	<path name="随州" fill="#D3D3D3" id="path1" d="M 435.2 149.3 L 437.6 149.3 439.2 145.6 442.4 144.1 444.1 146.7 446.5 148.7 449 151.8 451.4 152.7 449.8 153.8 450.6 154.8 451.4 154.8 453.1 156.8 455.5 156.8 456.3 158.5 458 159.4 466.1 153.8 467 153.8 467 155.9 467.8 155.9 467.8 153.8 468.6 152.7 471 151.8 471.9 151.3 470.2 150.7 471 150.3 472.7 150.7 472.7 149.3 475.1 145.6 476 145.6 476 145.2 478.4 145.2 479.2 146.2 480.9 146.2 481.7 147.7 482.5 148.7 481.7 149.7 482.5 150.7 483.3 150.3 484.1 150.3 484.1 150.7 482.5 152.3 482.5 153.8 484.1 155.9 481.7 157.4 482.5 159.4 481.7 160.5 481.7 161.5 482.5 164.6 483.3 165.6 484.1 165 484.9 167.1 483.3 169.1 483.3 171.7 482.5 173.2 481.7 173.8 480.9 172.7 480.9 176.3 484.9 180.4 484.9 182.4 483.3 183.9 482.5 185.4 487.4 187.5 486.6 190.6 489 192.7 488.2 195.7 489 197.7 490.7 199.2 491.5 199.2 493.1 198.2 494.7 195.7 496.4 195.7 496.4 196.7 498 198.2 497.1 200.2 497.1 203.3 498 204.3 498.8 206.9 499.6 207.4 502 205.4 505.3 205.4 506.1 204.3 507.8 204.3 508.6 202.8 509.4 202.3 508.6 204.3 510.2 205.4 508.6 207.4 509.4 209.5 507.8 211 508.6 213.5 511 214 510.2 215 508.6 219.1 509.4 220.7 507.8 225.2 507.8 226.3 508.6 226.8 509.4 227.3 507.8 228.3 507.8 229.3 506.1 229.9 506.9 230.9 505.3 231.4 506.1 234.4 504.5 236.5 502.9 236 501.2 238.5 499.6 237.5 498.8 240.6 498.8 240.1 496.4 241.1 495.6 241.1 496.4 240.1 497.1 239.6 497.1 239.1 495.6 238.5 494.7 237 493.1 237.5 493.1 238.5 492.3 239.1 490.7 235.5 489 236 488.2 237 486.6 236 485.8 237.5 484.9 235.5 480 233.4 478.4 237 474.3 241.1 472.7 240.6 471.9 238.5 470.2 238.1 469.4 239.6 468.6 239.1 467.8 240.6 467 240.1 467 241.1 465.3 240.6 462.1 237 459.6 238.1 457.2 238.1 454.7 239.6 453.1 237.5 451.4 238.5 451.4 243.6 451.4 244.2 450.6 243.6 449.8 245.7 449 246.7 448.2 245.7 446.5 244.2 444.1 243.6 441.6 240.1 440.8 240.6 439.2 239.1 438.3 239.1 437.6 238.1 437.6 237.5 438.3 237.5 438.3 237 437.6 236.5 435.9 237.5 435.2 237.5 434.3 236.5 433.5 236.5 433.5 236 430.2 237 428.6 235.5 425.3 237 423.7 234.4 423.7 233.4 419.6 234 419.6 229.3 418 225.8 417.2 225.2 415.5 225.2 414.7 223.7 413.9 222.2 410.6 221.7 409 220.7 408.2 220.7 406.5 219.6 407.4 217 406.5 215.6 406.5 212.9 406.5 212.5 408.2 211.5 408.2 210.5 408.2 208.9 408.2 207.9 411.4 208.9 411.4 208.4 411.4 207.4 413.9 206.9 415.5 202.8 417.2 202.3 418 202.8 418.8 203.3 421.3 198.8 423.7 200.2 424.5 199.8 424.5 198.8 423.7 195.1 423.7 193.6 426.2 193.1 427 190.1 427 189.5 427.8 189 429.4 188 427.8 186.5 426.2 186.5 426.2 184.9 425.3 183.4 426.2 182.8 425.3 181.9 426.2 178.3 428.6 176.8 428.6 175.7 428.6 174.7 430.2 174.2 430.2 173.2 428.6 171.2 428.6 168.1 428.6 167.1 429.4 165 428.6 164 429.4 162 428.6 160 429.4 158.5 431.1 158.9 431.1 158.5 432.7 157.4 432.7 156.4 433.5 155.3 433.5 154.4 431.9 153.3 431.9 152.3 431.1 152.7 431.1 151.3 433.5 150.3 434.3 150.3 435.2 149.3" stroke-miterlimit="10" stroke="#FFFFFF"/>
</svg>